<svg width="67" height="33" viewBox="0 0 67 33" fill="none" xmlns="http://www.w3.org/2000/svg">
<g opacity="0.3" clip-path="url(#clip0_0_12170)">
<path d="M46.0514 5.10745V13.1399L44.2115 13.7711V4.47559L38.6915 2.54473V15.7035L36.8696 16.3347V1.91287L34.1096 0.9375L31.3496 1.91287V16.3347L29.5096 15.7035V2.54473L24.0077 4.47559V13.7711L22.1678 13.1399V5.10745L20.3278 5.73871V14.4404L25.8296 16.3531V5.77639L27.6696 5.12629V17.0038L33.1896 18.9166V3.21051L34.1102 2.88523L35.0302 3.21051V18.9166L40.5321 17.0038V5.12629L42.3721 5.77639V16.3531L47.892 14.4404V5.73871L46.0514 5.10745Z" fill="white"/>
<path d="M1.42636 29.1915H4.68488V28.3117H1.42636V26.399H6.29525V25.5H0.429321V32.2512H6.46747V31.3905H1.42636V29.1915Z" fill="white"/>
<path d="M27.2334 29.5703C27.2334 30.7752 26.4285 31.578 25.2393 31.578C24.0889 31.578 23.36 30.7555 23.36 29.5703V25.5156H22.3824V29.6079C22.3824 31.4438 23.7242 32.4583 25.2391 32.4583C27.4628 32.4583 28.191 30.9283 28.191 29.6079V25.5156H27.2328L27.2334 29.5703Z" fill="white"/>
<path d="M33.6481 32.2512H34.6066V25.5H33.6481V32.2512Z" fill="white"/>
<path d="M46.2034 30.7904L41.4116 25.4922H40.4528V32.2434H41.4116V26.9256L46.2231 32.2434H47.1813V25.4922H46.2037L46.2034 30.7904Z" fill="white"/>
<path d="M53.0699 32.2512H54.0476V25.5H53.0699V32.2512Z" fill="white"/>
<path d="M63.4775 28.5912L66.2949 25.4922H65.1064L62.8631 27.922L60.6968 25.4922H59.4126L62.1348 28.5912L58.7418 32.2449H59.988L62.7676 29.2424L65.4324 32.2449H66.7742L63.4775 28.5912Z" fill="white"/>
<path d="M16.455 28.8811C16.455 29.8375 16.129 30.4502 15.5732 30.9853C15.0557 30.3732 15.0557 30.3732 15.0557 30.3732H13.9248C14.8448 31.4251 14.8448 31.4251 14.8448 31.4251C14.6151 31.5399 14.2119 31.6164 13.8866 31.6355C12.449 31.6355 11.2988 30.4689 11.2988 28.8817V28.8626C11.2988 27.2362 12.3721 26.1087 13.8291 26.0891C15.2862 26.0891 16.4547 27.2369 16.4547 28.843L16.455 28.8811ZM13.8476 25.2274C11.8339 25.2468 10.2809 26.7573 10.2809 28.8992V28.9183C10.2809 31.0225 11.8731 32.5147 13.8657 32.4951C14.3833 32.4951 14.9966 32.3612 15.4564 32.1317L15.9935 32.7628H17.1244L16.1662 31.6534C16.9523 31.0605 17.4504 30.0662 17.4504 28.8423V28.8231C17.4504 26.719 15.8596 25.2086 13.8474 25.2267" fill="white"/>
<path d="M51.1652 12.5442V12.0665H51.5107C51.7022 12.0665 51.8174 12.1621 51.8174 12.3151C51.8174 12.4487 51.7022 12.5442 51.5107 12.5442H51.1652ZM50.744 13.424H51.1652V12.8889H51.4149C51.7979 13.424 51.7979 13.424 51.7979 13.424H52.2967C51.8554 12.8121 51.8554 12.8121 51.8554 12.8121C52.0858 12.7359 52.2391 12.5635 52.2391 12.277C52.2391 11.8941 51.9512 11.7031 51.5488 11.7031H50.7439L50.744 13.424ZM51.4149 14.0934C50.5907 14.0934 49.9579 13.424 49.9579 12.6209V12.6016C49.9579 11.7985 50.5905 11.1291 51.4149 11.1291C52.2579 11.1291 52.8907 11.7792 52.8907 12.6016C52.8907 13.4053 52.2579 14.0934 51.4149 14.0934ZM51.4149 14.2656C52.3536 14.2656 53.0827 13.5007 53.0827 12.6016C53.0827 11.6836 52.3542 10.9375 51.4149 10.9375C50.4943 10.9375 49.7653 11.7025 49.7653 12.6016V12.6209C49.7653 13.5202 50.4937 14.2654 51.4149 14.2654" fill="white"/>
</g>
<defs>
<clipPath id="clip0_0_12170">
<rect width="66.3486" height="32" fill="white" transform="translate(0.429321 0.765625)"/>
</clipPath>
</defs>
</svg>
