<svg width="152" height="20" viewBox="0 0 152 20" fill="none" xmlns="http://www.w3.org/2000/svg">
<g opacity="0.3" clip-path="url(#clip0_0_12157)">
<path d="M0.930252 7.50615V14.7578H2.48192H4.03359L4.04625 9.18448L4.06525 3.61115L6.92792 9.17181L9.78425 14.7261L11.9756 14.7451L14.1669 14.7578V7.50615V0.25448H12.6153H11.0636V5.80881C11.0573 10.7298 11.0509 11.3568 10.9686 11.2428C10.9116 11.1795 9.61325 8.67781 8.08059 5.68848L5.28759 0.25448H3.10892H0.930252V7.50615Z" fill="white"/>
<path d="M18.6724 7.50615V14.7578H20.2241H21.7758V7.50615V0.25448H20.2241H18.6724V7.50615Z" fill="white"/>
<path d="M26.2115 7.50615V14.7578H27.7632H29.3148V9.20348C29.3148 6.15081 29.3338 3.67448 29.3592 3.69981C29.3845 3.72515 30.6765 6.21415 32.2345 9.23515L35.0592 14.7261L37.2252 14.7451L39.3848 14.7578V7.50615V0.25448H37.8648H36.3448V5.79615C36.3448 8.84248 36.3258 11.3378 36.3005 11.3378C36.2688 11.3378 34.9705 8.84248 33.4062 5.79615L30.5562 0.25448H28.3838H26.2115V7.50615Z" fill="white"/>
<path d="M43.3131 9.75781V19.2578L44.3137 18.6815C44.8584 18.3585 45.5677 17.9531 45.8781 17.7695L46.4481 17.4401L46.4671 8.85214L46.4797 0.264143H44.8964H43.3131V9.75781Z" fill="white"/>
<path d="M51.7353 7.39215C50.228 11.3251 48.9803 14.5868 48.9613 14.6438C48.917 14.7515 49.0183 14.7578 50.551 14.7578H52.1913L52.5017 13.9471C52.6727 13.5038 52.9197 12.8515 53.059 12.4968L53.306 11.8445L55.149 11.8318L56.992 11.8128L57.695 10.5968C58.0813 9.92548 58.417 9.37448 58.436 9.37448C58.455 9.37448 58.9237 10.5841 59.4747 12.0661L60.4753 14.7578H62.1093H63.7433L63.528 14.1688C63.338 13.6368 58.8097 1.46415 58.493 0.61548L58.36 0.25448H56.4093H54.465L51.7353 7.39215ZM57.4227 6.38515L58.417 9.15281L56.384 9.17181C55.2693 9.17815 54.351 9.17815 54.3383 9.16548C54.332 9.15915 54.7817 7.89248 55.3453 6.35348C55.909 4.81448 56.384 3.57315 56.403 3.59215C56.422 3.60481 56.878 4.86515 57.4227 6.38515Z" fill="white"/>
<path d="M63.649 1.58448V2.91448H65.8657H68.0823V8.83615V14.7578H69.634H71.1857V8.83615V2.91448H73.4023H75.619V1.58448V0.25448H69.634H63.649V1.58448Z" fill="white"/>
<path d="M78.4615 7.50615V14.7578H80.0132H81.5648V12.0345V9.31115H82.2805H82.9962L84.7315 12.0091C85.6878 13.4911 86.4985 14.7198 86.5365 14.7325C86.5745 14.7451 87.3788 14.7515 88.3225 14.7451L90.0452 14.7261L88.1388 11.9205C87.0938 10.3751 86.2515 9.10215 86.2642 9.08948C86.2705 9.08315 86.4415 9.02615 86.6378 8.96915C86.8342 8.91215 87.2648 8.73481 87.5878 8.57015C88.0692 8.32948 88.2782 8.17748 88.7215 7.73415C89.6335 6.82215 89.9502 6.04315 89.9438 4.71948C89.9375 3.33248 89.5955 2.44581 88.7595 1.61615C87.9868 0.849813 87.1128 0.469813 85.7765 0.317813C85.4598 0.286147 83.6992 0.25448 81.8372 0.25448H78.4615V7.50615ZM85.0038 2.72448C85.7828 2.85115 86.3908 3.27548 86.6948 3.89615C86.9165 4.36481 86.9165 5.09315 86.6885 5.57448C86.3782 6.23948 85.9158 6.62581 85.2002 6.80948C84.9152 6.87915 84.4528 6.90448 83.1988 6.90448H81.5648V4.82715C81.5648 3.68081 81.5838 2.72448 81.6092 2.70548C81.6725 2.63581 84.5922 2.65481 85.0038 2.72448Z" fill="white"/>
<path d="M97.6267 0.417718C97.5887 0.519052 96.36 3.73005 94.897 7.56172C93.434 11.3934 92.218 14.5791 92.199 14.6424C92.1737 14.7437 92.2687 14.7501 93.8013 14.7374L95.4353 14.7184L95.98 13.2934L96.5247 11.8684L98.3677 11.8494L100.211 11.8367L100.933 10.5891C101.458 9.67072 101.661 9.36672 101.705 9.43639C101.737 9.48705 102.199 10.6967 102.731 12.1217L103.7 14.7184L105.322 14.7374C106.215 14.7437 106.943 14.7311 106.943 14.7057C106.943 14.6741 105.74 11.4124 104.27 7.44772L101.591 0.246717H99.6407H97.6963L97.6267 0.417718ZM100.635 6.32038C101.18 7.83405 101.623 9.09439 101.623 9.12605C101.623 9.15139 100.711 9.17672 99.5963 9.17672C98.4817 9.17672 97.5697 9.15772 97.5697 9.13872C97.5697 9.11339 99.4 4.07838 99.571 3.64772C99.59 3.58438 99.6217 3.54638 99.6343 3.55272C99.6407 3.56538 100.097 4.81305 100.635 6.32038Z" fill="white"/>
<path d="M109.172 7.5091V14.7734L112.675 14.7418C115.898 14.7164 116.228 14.7038 116.893 14.5771C120.135 13.9754 122.447 12.0058 123.175 9.23177C123.353 8.5731 123.41 7.0721 123.296 6.3501C122.814 3.31644 120.414 1.09344 116.931 0.434772C116.291 0.314438 115.936 0.301772 112.706 0.276439L109.172 0.244772V7.5091ZM116.741 3.09477C117.019 3.17077 117.507 3.36077 117.817 3.51277C118.957 4.07644 119.66 4.88077 120.047 6.05244C120.199 6.5021 120.218 6.66044 120.218 7.44577C120.224 8.20577 120.205 8.4021 120.078 8.80744C119.641 10.1881 118.767 11.1318 117.393 11.6764C116.525 12.0248 116.316 12.0564 114.195 12.0818L112.212 12.1134V7.5091V2.90477L114.226 2.93011C116.038 2.95544 116.285 2.97444 116.741 3.09477Z" fill="white"/>
<path d="M125.876 7.50615V14.7578H131.006H136.136V13.4278V12.0978H132.557H128.979V10.3561V8.61448H132.336H135.692V7.31615V6.01781H132.336H128.979V4.46615V2.91448H132.526H136.072V1.58448V0.25448H130.974H125.876V7.50615Z" fill="white"/>
<path d="M139.805 7.49981V14.7578H141.357H142.909V12.0345V9.31115H143.624L144.334 9.31748L146.075 12.0345L147.817 14.7578H149.609H151.395L151.06 14.2638C150.274 13.1301 147.652 9.23515 147.621 9.15915C147.602 9.10215 147.652 9.05781 147.766 9.02615C148.178 8.92481 148.938 8.59548 149.305 8.35481C150.16 7.80381 150.8 7.00581 151.085 6.13815C151.218 5.72648 151.237 5.55548 151.237 4.71948C151.237 3.90248 151.218 3.70615 151.091 3.29448C150.863 2.57248 150.591 2.10381 150.091 1.60348C149.552 1.06514 148.767 0.647144 147.88 0.431811C147.336 0.305144 147.133 0.298811 143.561 0.273478L139.805 0.248144V7.49981ZM146.481 2.75614C147.532 2.97781 148.191 3.73781 148.184 4.71948C148.178 5.60614 147.741 6.27748 146.911 6.67015L146.487 6.87281L144.701 6.89181L142.909 6.91081V4.78914V2.66115H144.479C145.6 2.66115 146.164 2.68648 146.481 2.75614Z" fill="white"/>
</g>
<defs>
<clipPath id="clip0_0_12157">
<rect width="150.48" height="19" fill="white" transform="translate(0.94931 0.265625)"/>
</clipPath>
</defs>
</svg>
