<svg width="105" height="27" viewBox="0 0 105 27" fill="none" xmlns="http://www.w3.org/2000/svg">
<g opacity="0.3">
<path fill-rule="evenodd" clip-rule="evenodd" d="M5.28935 11.3955H7.97153L7.62826 12.629H14.2901L10.7875 15.3402H6.91262L6.41226 17.1206H13.2195L12.469 19.8144H2.93298L5.28935 11.3955Z" fill="white"/>
<path fill-rule="evenodd" clip-rule="evenodd" d="M39.2574 15.3462H35.5454L35.0509 17.1149H41.8465L41.0902 19.8146H31.5658L33.9105 11.4189H36.616L36.2785 12.6233H42.7891L39.2574 15.3462Z" fill="white"/>
<path fill-rule="evenodd" clip-rule="evenodd" d="M16.3461 17.1228L18.8595 8.12207H6.19915L5.44861 10.7926H15.4035L12.8842 19.8108H19.6392L20.3955 17.1228H16.3461Z" fill="white"/>
<path fill-rule="evenodd" clip-rule="evenodd" d="M44.3744 8.14551H24.709L23.9642 10.8219H27.7344L25.2151 19.8168H27.9555L30.4748 10.7986L43.6355 10.7928L44.3744 8.14551Z" fill="white"/>
<path fill-rule="evenodd" clip-rule="evenodd" d="M53.346 11.3955H56.0282L53.6777 19.8144H50.9955L53.346 11.3955Z" fill="white"/>
<path fill-rule="evenodd" clip-rule="evenodd" d="M22.9533 11.7236L20.4224 20.6836L18.933 20.672L20.8588 25.2567L25.3795 20.7127L23.8726 20.7069L26.421 11.7236H22.9533Z" fill="white"/>
<path fill-rule="evenodd" clip-rule="evenodd" d="M21.3554 16.0578L23.8805 7.13848L25.3118 7.1443L23.2056 2.55957L18.6849 7.10357L20.407 7.10939L17.847 16.0345L21.3554 16.0578Z" fill="white"/>
<path fill-rule="evenodd" clip-rule="evenodd" d="M103.007 10.8799L101.006 8.13371L84.1855 8.12207L83.4408 10.7926C86.3033 10.7926 98.0095 10.8159 100.279 10.8159L99.7783 12.6021H95.6706C95.7055 12.5904 96.8226 17.4835 97.3637 19.8108H100.511L99.5048 15.325H101.768L103.007 10.8799Z" fill="white"/>
<path fill-rule="evenodd" clip-rule="evenodd" d="M93.3226 11.4033L90.972 19.8048H93.6717C94.3291 17.4542 95.0157 14.9291 95.6673 12.6077L96.0048 11.4033H93.3226Z" fill="white"/>
<path fill-rule="evenodd" clip-rule="evenodd" d="M84.3969 17.1112L84.8915 15.3308H88.8478L92.3562 12.6195H85.6129L85.9562 11.3861H83.2682L82.9191 12.6312H82.5177L83.0006 10.9032L80.9875 8.12789L64.2486 8.12207L61.7293 17.1344H59.9315L59.5242 15.3192H61.7817L63.0326 10.8566L61.0311 8.12789L44.746 8.13371L43.9955 10.8217H47.1548L44.6355 19.8224H47.37L49.8951 10.7926C50.4071 10.7926 58.0406 10.8333 60.2864 10.8333L59.7802 12.6428H55.6784C56.2369 15.0748 56.842 17.4486 57.3831 19.7992L63.6958 19.8108L66.2035 10.845H70.2937L69.7875 12.6603H66.2733L65.5169 15.3657H69.066L67.8209 19.805H70.5206L73.034 10.8275H80.266L78.5089 17.1112H74.4188L76.0129 11.4035H73.3133L70.9628 19.8108H78.1424L81.162 17.4777L81.7671 15.3075H82.1744L80.9118 19.805H90.4478L91.1984 17.1112H84.3969Z" fill="white"/>
</g>
</svg>
