<svg width="323" height="24" viewBox="0 0 323 24" fill="none" xmlns="http://www.w3.org/2000/svg">
<g opacity="0.3">
<path fill-rule="evenodd" clip-rule="evenodd" d="M4.30185 10.1438H6.3973L6.12912 11.1074H11.3337L8.5973 13.2256H5.57003L5.17912 14.6165H10.4973L9.91094 16.7211H2.46094L4.30185 10.1438Z" fill="white"/>
<path fill-rule="evenodd" clip-rule="evenodd" d="M30.845 13.2276H27.945L27.5587 14.6094H32.8678L32.2768 16.7185H24.8359L26.6678 10.1594H28.7814L28.5178 11.1003H33.6041L30.845 13.2276Z" fill="white"/>
<path fill-rule="evenodd" clip-rule="evenodd" d="M12.9355 14.6287L14.8991 7.59692H5.00824L4.42188 9.68329H12.1991L10.231 16.7287H15.5082L16.0991 14.6287H12.9355Z" fill="white"/>
<path fill-rule="evenodd" clip-rule="evenodd" d="M34.8439 7.61255H19.4803L18.8984 9.70346H21.8439L19.8757 16.7307H22.0166L23.9848 9.68528L34.2666 9.68073L34.8439 7.61255Z" fill="white"/>
<path fill-rule="evenodd" clip-rule="evenodd" d="M41.852 10.1438H43.9474L42.1111 16.7211H40.0156L41.852 10.1438Z" fill="white"/>
<path fill-rule="evenodd" clip-rule="evenodd" d="M18.1018 10.4172L16.1246 17.4172L14.9609 17.4081L16.4655 20.99L19.9973 17.44L18.82 17.4354L20.8109 10.4172H18.1018Z" fill="white"/>
<path fill-rule="evenodd" clip-rule="evenodd" d="M16.8503 13.7908L18.823 6.82263L19.9412 6.82718L18.2957 3.24536L14.7639 6.79536L16.1094 6.79991L14.1094 13.7726L16.8503 13.7908Z" fill="white"/>
<path fill-rule="evenodd" clip-rule="evenodd" d="M80.6457 9.75147L79.0821 7.60601L65.9412 7.59692L65.3594 9.68329C67.5957 9.68329 76.7412 9.70147 78.5139 9.70147L78.123 11.0969H74.9139C74.9412 11.0878 75.8139 14.9106 76.2366 16.7287H78.6957L77.9094 13.2242H79.6776L80.6457 9.75147Z" fill="white"/>
<path fill-rule="evenodd" clip-rule="evenodd" d="M73.0864 10.1516L71.25 16.7152H73.3591C73.8727 14.8789 74.4091 12.9062 74.9182 11.0925L75.1818 10.1516H73.0864Z" fill="white"/>
<path fill-rule="evenodd" clip-rule="evenodd" d="M66.1105 14.6197L66.4969 13.2287H69.5878L72.3287 11.1106H67.0605L67.3287 10.1469H65.2287L64.956 11.1197H64.6423L65.0196 9.76965L63.4469 7.60147L50.3696 7.59692L48.4014 14.6378H46.9969L46.6787 13.2197H48.4423L49.4196 9.73329L47.856 7.60147L35.1332 7.60601L34.5469 9.70601H37.0151L35.0469 16.7378H37.1832L39.156 9.68329C39.556 9.68329 45.5196 9.71511 47.2741 9.71511L46.8787 11.1287H43.6742C44.1105 13.0287 44.5832 14.8833 45.006 16.7197L49.9378 16.7287L51.8969 9.7242H55.0923L54.6969 11.1424H51.9514L51.3605 13.256H54.1332L53.1605 16.7242H55.2696L57.2332 9.71056H62.8832L61.5105 14.6197H58.3151L59.5605 10.1606H57.4514L55.6151 16.7287H61.2242L63.5832 14.906L64.056 13.2106H64.3742L63.3878 16.7242H70.8378L71.4242 14.6197H66.1105Z" fill="white"/>
</g>
<g opacity="0.3" clip-path="url(#clip0_0_12567)">
<path d="M114.155 10.0886V16.1953H115.462H116.768L116.779 11.502L116.795 6.80865L119.206 11.4913L121.611 16.1686L123.456 16.1846L125.302 16.1953V10.0886V3.98198H123.995H122.688V8.65931C122.683 12.8033 122.678 13.3313 122.608 13.2353C122.56 13.182 121.467 11.0753 120.176 8.55798L117.824 3.98198H115.99H114.155V10.0886Z" fill="white"/>
<path d="M129.092 10.0886V16.1953H130.399H131.706V10.0886V3.98198H130.399H129.092V10.0886Z" fill="white"/>
<path d="M135.444 10.0886V16.1953H136.751H138.057V11.518C138.057 8.94731 138.073 6.86198 138.095 6.88331C138.116 6.90465 139.204 9.00065 140.516 11.5446L142.895 16.1686L144.719 16.1846L146.537 16.1953V10.0886V3.98198H145.257H143.977V8.64865C143.977 11.214 143.961 13.3153 143.94 13.3153C143.913 13.3153 142.82 11.214 141.503 8.64865L139.103 3.98198H137.273H135.444V10.0886Z" fill="white"/>
<path d="M149.842 11.9844V19.9844L150.685 19.499C151.144 19.227 151.741 18.8857 152.002 18.731L152.482 18.4537L152.498 11.2217L152.509 3.98971H151.176H149.842V11.9844Z" fill="white"/>
<path d="M156.935 9.99265C155.666 13.3046 154.615 16.0513 154.599 16.0993C154.562 16.19 154.647 16.1953 155.938 16.1953H157.319L157.58 15.5126C157.724 15.1393 157.932 14.59 158.05 14.2913L158.258 13.742L159.81 13.7313L161.362 13.7153L161.954 12.6913C162.279 12.126 162.562 11.662 162.578 11.662C162.594 11.662 162.988 12.6806 163.452 13.9286L164.295 16.1953H165.671H167.047L166.866 15.6993C166.706 15.2513 162.892 5.00065 162.626 4.28598L162.514 3.98198H160.871H159.234L156.935 9.99265ZM161.724 9.14465L162.562 11.4753L160.85 11.4913C159.911 11.4966 159.138 11.4966 159.127 11.486C159.122 11.4806 159.5 10.414 159.975 9.11798C160.45 7.82198 160.85 6.77665 160.866 6.79265C160.882 6.80331 161.266 7.86465 161.724 9.14465Z" fill="white"/>
<path d="M166.967 5.10198V6.22198H168.834H170.701V11.2086V16.1953H172.007H173.314V11.2086V6.22198H175.181H177.047V5.10198V3.98198H172.007H166.967V5.10198Z" fill="white"/>
<path d="M179.444 10.0886V16.1953H180.751H182.057V13.902V11.6086H182.66H183.263L184.724 13.8806C185.529 15.1286 186.212 16.1633 186.244 16.174C186.276 16.1846 186.953 16.19 187.748 16.1846L189.199 16.1686L187.593 13.806C186.713 12.5046 186.004 11.4326 186.015 11.422C186.02 11.4166 186.164 11.3686 186.329 11.3206C186.495 11.2726 186.857 11.1233 187.129 10.9846C187.535 10.782 187.711 10.654 188.084 10.2806C188.852 9.51265 189.119 8.85665 189.113 7.74198C189.108 6.57398 188.82 5.82731 188.116 5.12865C187.465 4.48331 186.729 4.16331 185.604 4.03531C185.337 4.00865 183.855 3.98198 182.287 3.98198H179.444V10.0886ZM184.953 6.06198C185.609 6.16865 186.121 6.52598 186.377 7.04865C186.564 7.44331 186.564 8.05665 186.372 8.46198C186.111 9.02198 185.721 9.34731 185.119 9.50198C184.879 9.56065 184.489 9.58198 183.433 9.58198H182.057V7.83265C182.057 6.86731 182.073 6.06198 182.095 6.04598C182.148 5.98731 184.607 6.00331 184.953 6.06198Z" fill="white"/>
<path d="M195.58 4.11698C195.548 4.20231 194.513 6.90631 193.281 10.133C192.049 13.3596 191.025 16.0423 191.009 16.0956C190.988 16.181 191.068 16.1863 192.358 16.1756L193.734 16.1596L194.193 14.9596L194.652 13.7596L196.204 13.7436L197.756 13.733L198.364 12.6823C198.806 11.909 198.977 11.653 199.014 11.7116C199.041 11.7543 199.43 12.773 199.878 13.973L200.694 16.1596L202.06 16.1756C202.812 16.181 203.425 16.1703 203.425 16.149C203.425 16.1223 202.412 13.3756 201.174 10.037L198.918 3.97298H197.276H195.638L195.58 4.11698ZM198.113 9.08764C198.572 10.3623 198.945 11.4236 198.945 11.4503C198.945 11.4716 198.177 11.493 197.238 11.493C196.3 11.493 195.532 11.477 195.532 11.461C195.532 11.4396 197.073 7.19964 197.217 6.83698C197.233 6.78364 197.26 6.75164 197.27 6.75698C197.276 6.76764 197.66 7.81831 198.113 9.08764Z" fill="white"/>
<path d="M205.303 10.0936V16.2109L208.253 16.1843C210.967 16.1629 211.245 16.1523 211.805 16.0456C214.535 15.5389 216.482 13.8803 217.095 11.5443C217.245 10.9896 217.293 9.72561 217.197 9.1176C216.791 6.56294 214.77 4.69094 211.837 4.13627C211.298 4.03494 210.999 4.02427 208.279 4.00294L205.303 3.97627V10.0936ZM211.677 6.37627C211.911 6.44027 212.322 6.60027 212.583 6.72827C213.543 7.20294 214.135 7.88027 214.461 8.86694C214.589 9.2456 214.605 9.37894 214.605 10.0403C214.61 10.6803 214.594 10.8456 214.487 11.1869C214.119 12.3496 213.383 13.1443 212.226 13.6029C211.495 13.8963 211.319 13.9229 209.533 13.9443L207.863 13.9709V10.0936V6.21627L209.559 6.23761C211.085 6.25894 211.293 6.27494 211.677 6.37627Z" fill="white"/>
<path d="M219.374 10.0886V16.1953H223.694H228.014V15.0753V13.9553H225H221.987V12.4886V11.022H224.814H227.64V9.92865V8.83531H224.814H221.987V7.52865V6.22198H224.974H227.96V5.10198V3.98198H223.667H219.374V10.0886Z" fill="white"/>
<path d="M231.1 10.0833V16.1953H232.407H233.714V13.902V11.6086H234.316L234.914 11.614L236.38 13.902L237.847 16.1953H239.356H240.86L240.578 15.7793C239.916 14.8246 237.708 11.5446 237.682 11.4806C237.666 11.4326 237.708 11.3953 237.804 11.3686C238.151 11.2833 238.791 11.006 239.1 10.8033C239.82 10.3393 240.359 9.66731 240.599 8.93665C240.711 8.58998 240.727 8.44598 240.727 7.74198C240.727 7.05398 240.711 6.88865 240.604 6.54198C240.412 5.93398 240.183 5.53931 239.762 5.11798C239.308 4.66465 238.647 4.31264 237.9 4.13131C237.442 4.02464 237.271 4.01931 234.263 3.99798L231.1 3.97664V10.0833ZM236.722 6.08864C237.607 6.27531 238.162 6.91531 238.156 7.74198C238.151 8.48865 237.783 9.05398 237.084 9.38465L236.727 9.55531L235.223 9.57131L233.714 9.58731V7.80064V6.00865H235.036C235.98 6.00865 236.455 6.02998 236.722 6.08864Z" fill="white"/>
</g>
<g opacity="0.3" clip-path="url(#clip1_0_12567)">
<path d="M307.1 3.26027V9.28458L305.72 9.75802V2.78638L301.58 1.33824V11.2073L300.213 11.6807V0.864343L298.143 0.132812L296.073 0.864343V11.6807L294.693 11.2073V1.33824L290.567 2.78638V9.75802L289.187 9.28458V3.26027L287.807 3.73372V10.26L291.933 11.6945V3.76198L293.313 3.2744V12.1826L297.453 13.6171V1.83757L298.144 1.59361L298.834 1.83757V13.6171L302.96 12.1826V3.2744L304.34 3.76198V11.6945L308.48 10.26V3.73372L307.1 3.26027Z" fill="white"/>
<path d="M273.633 21.3233H276.077V20.6635H273.633V19.2289H277.284V18.5547H272.885V23.6181H277.414V22.9726H273.633V21.3233Z" fill="white"/>
<path d="M292.992 21.6035C292.992 22.5072 292.388 23.1093 291.496 23.1093C290.634 23.1093 290.087 22.4924 290.087 21.6035V18.5625H289.354V21.6317C289.354 23.0087 290.36 23.7695 291.496 23.7695C293.164 23.7695 293.71 22.622 293.71 21.6317V18.5625H292.991L292.992 21.6035Z" fill="white"/>
<path d="M297.799 23.6181H298.518V18.5547H297.799V23.6181Z" fill="white"/>
<path d="M307.214 22.5205L303.62 18.5469H302.901V23.6103H303.62V19.622L307.228 23.6103H307.947V18.5469H307.214L307.214 22.5205Z" fill="white"/>
<path d="M312.369 23.6181H313.103V18.5547H312.369V23.6181Z" fill="white"/>
<path d="M320.179 20.8711L322.292 18.5469H321.401L319.718 20.3692L318.093 18.5469H317.13L319.172 20.8711L316.627 23.6114H317.562L319.647 21.3595L321.645 23.6114H322.651L320.179 20.8711Z" fill="white"/>
<path d="M284.906 21.0925C284.906 21.8097 284.662 22.2693 284.245 22.6706C283.857 22.2115 283.857 22.2115 283.857 22.2115H283.009C283.699 23.0005 283.699 23.0005 283.699 23.0005C283.526 23.0865 283.224 23.1439 282.98 23.1583C281.902 23.1583 281.039 22.2833 281.039 21.0929V21.0786C281.039 19.8588 281.844 19.0132 282.937 18.9985C284.03 18.9985 284.906 19.8594 284.906 21.0639L284.906 21.0925ZM282.951 18.3522C281.44 18.3667 280.276 19.4996 280.276 21.106V21.1204C280.276 22.6985 281.47 23.8177 282.964 23.803C283.352 23.803 283.812 23.7026 284.157 23.5304L284.56 24.0037H285.408L284.69 23.1717C285.279 22.727 285.653 21.9813 285.653 21.0634V21.049C285.653 19.4709 284.46 18.3381 282.951 18.3517" fill="white"/>
<path d="M310.943 8.83784V8.47959H311.202C311.346 8.47959 311.432 8.55124 311.432 8.66601C311.432 8.76623 311.346 8.83784 311.202 8.83784H310.943ZM310.627 9.4977H310.943V9.09638H311.13C311.417 9.4977 311.417 9.4977 311.417 9.4977H311.791C311.46 9.03873 311.46 9.03873 311.46 9.03873C311.633 8.98159 311.748 8.85231 311.748 8.63741C311.748 8.35027 311.532 8.20704 311.23 8.20704H310.627L310.627 9.4977ZM311.13 9.99975C310.512 9.99975 310.037 9.4977 310.037 8.89538V8.88086C310.037 8.27854 310.512 7.7765 311.13 7.7765C311.762 7.7765 312.237 8.26407 312.237 8.88086C312.237 9.48363 311.762 9.99975 311.13 9.99975ZM311.13 10.1289C311.834 10.1289 312.381 9.55519 312.381 8.88086C312.381 8.1924 311.835 7.63281 311.13 7.63281C310.44 7.63281 309.893 8.20653 309.893 8.88086V8.89538C309.893 9.56983 310.439 10.1287 311.13 10.1287" fill="white"/>
</g>
<defs>
<clipPath id="clip0_0_12567">
<rect width="126.72" height="16" fill="white" transform="translate(114.168 4)"/>
</clipPath>
<clipPath id="clip1_0_12567">
<rect width="49.7615" height="24" fill="white" transform="translate(272.888)"/>
</clipPath>
</defs>
</svg>
