<svg width="100" height="29" viewBox="0 0 100 29" fill="none" xmlns="http://www.w3.org/2000/svg">
<path d="M0.557632 2.18043C1.66138 7.06612 4.02446 11.2923 8.10685 15.4903C11.7784 19.2659 13.9982 20.7033 18.7147 22.384C21.4097 23.3592 22.865 23.5879 27.1354 23.6475C32.0308 23.7159 32.3946 23.7731 34.0194 24.9157C40.2855 29.4047 51.7413 29.6689 63.3872 25.6384C73.9081 21.9829 88.3276 13.3033 96.0351 5.96229C98.6747 3.44682 99.2577 2.72573 99.1608 2.20349C98.9399 1.23677 98.3884 1.56764 94.0414 5.12707C83.923 13.5282 72.2905 20.3196 62.242 23.7212C54.548 26.3744 46.7767 27.0993 40.9877 25.7423C38.6779 25.1631 34.9758 23.5747 34.9559 23.1317C34.9581 22.9755 36.0876 22.2881 37.4518 21.5779C40.3643 20.0299 41.7102 18.7725 42.9921 16.4985C44.3275 14.1211 44.2568 11.724 42.7727 9.82811C41.2365 7.93146 40.3321 7.42399 38.2768 7.26506C35.9355 7.07609 33.8121 8.06215 31.8547 10.2225C29.2621 13.1033 28.592 16.3234 29.8753 19.5448C30.2275 20.4352 30.3713 21.3227 30.1601 21.5281C29.6321 22.0416 23.9064 21.7533 21.2077 21.0384C13.3444 19.0274 6.19792 12.3123 2.72382 3.72125C2.01946 1.9404 1.25866 0.471296 1.07674 0.44271C0.401908 0.277018 0.264805 0.769947 0.557632 2.18043ZM35.2976 9.85391C36.898 9.01681 39.7081 9.21233 40.7351 10.2684C42.7378 12.3279 42.2819 15.1343 39.4047 17.8808C37.0284 20.1916 33.6251 21.4463 32.5981 20.3902C31.3144 19.07 30.9377 16.1999 31.7231 14.0492C32.5605 11.8992 33.4075 10.9214 35.2976 9.85391Z" fill="white"/>
</svg>
