<svg width="18" height="18" viewBox="0 0 12 12" fill="none" xmlns="http://www.w3.org/2000/svg">
<path d="M6 11.5977C9.31371 11.5977 12 9.13522 12 6.09766C12 3.06009 9.31371 0.597656 6 0.597656C2.68629 0.597656 0 3.06009 0 6.09766C0 9.13522 2.68629 11.5977 6 11.5977Z" fill="#10B981" fill-opacity="0.2"/>
<path fill-rule="evenodd" clip-rule="evenodd" d="M6 9.76693C7.06087 9.76693 8.07827 9.38064 8.8284 8.69296C9.5786 8.00534 10 7.07272 10 6.10026C10 5.1278 9.5786 4.19517 8.8284 3.50754C8.07827 2.8199 7.06087 2.43359 6 2.43359C4.93913 2.43359 3.92172 2.8199 3.17157 3.50754C2.42143 4.19517 2 5.1278 2 6.10026C2 7.07272 2.42143 8.00534 3.17157 8.69296C3.92172 9.38064 4.93913 9.76693 6 9.76693ZM7.883 5.18772C7.9186 5.15654 7.9472 5.11924 7.96707 5.07794C7.987 5.03663 7.9978 4.99215 7.99893 4.94701C8.00007 4.90188 7.99153 4.85698 7.97373 4.81488C7.95593 4.77278 7.92927 4.73431 7.89527 4.70165C7.86127 4.669 7.82053 4.64281 7.77547 4.62457C7.7304 4.60634 7.68193 4.59642 7.63267 4.59537C7.5834 4.59433 7.53447 4.60219 7.48853 4.6185C7.4426 4.63481 7.4006 4.65925 7.365 4.69043C6.61312 5.34897 5.9534 6.09057 5.401 6.89825L4.64 6.20109C4.60567 6.16732 4.56427 6.14023 4.51827 6.12144C4.47227 6.10266 4.42261 6.09255 4.37226 6.09174C4.32191 6.09092 4.27189 6.09942 4.2252 6.11671C4.17851 6.13399 4.13609 6.15973 4.10048 6.19237C4.06487 6.22501 4.0368 6.26389 4.01794 6.30669C3.99908 6.3495 3.98981 6.39534 3.99071 6.4415C3.99159 6.48766 4.00261 6.53317 4.02311 6.57534C4.04361 6.6175 4.07315 6.65545 4.11 6.68693L5.21 7.69575C5.25073 7.73309 5.3003 7.76132 5.35487 7.77825C5.40943 7.79524 5.46753 7.80043 5.52464 7.79347C5.58175 7.7865 5.63635 7.76755 5.68419 7.73816C5.73203 7.7087 5.77183 7.66959 5.8005 7.62376C6.36371 6.72445 7.06507 5.90404 7.883 5.18772Z" fill="#10B981"/>
</svg>
