<svg width="16" height="16" viewBox="0 0 16 16" fill="none" xmlns="http://www.w3.org/2000/svg">
<path fill-rule="evenodd" clip-rule="evenodd" d="M6.39492 2.13368C6.23256 2.27203 6.15138 2.34121 6.06469 2.39932C5.86595 2.53252 5.64276 2.62497 5.40805 2.67131C5.30565 2.69153 5.19934 2.70001 4.9867 2.71698C4.45244 2.75961 4.18531 2.78093 3.96245 2.85965C3.44699 3.04172 3.04153 3.44717 2.85947 3.96263C2.78075 4.1855 2.75943 4.45263 2.7168 4.98688C2.69983 5.19952 2.69134 5.30584 2.67113 5.40823C2.62479 5.64295 2.53234 5.86613 2.39914 6.06487C2.34103 6.15157 2.27185 6.23274 2.13349 6.3951C1.78587 6.80302 1.61205 7.00698 1.51012 7.22023C1.27438 7.71346 1.27438 8.28686 1.51012 8.78009C1.61205 8.99334 1.78586 9.1973 2.13349 9.60523C2.27184 9.76756 2.34103 9.84876 2.39914 9.93546C2.53234 10.1342 2.62479 10.3574 2.67113 10.5921C2.69134 10.6945 2.69983 10.8008 2.7168 11.0134C2.75943 11.5477 2.78075 11.8148 2.85947 12.0377C3.04153 12.5532 3.44699 12.9586 3.96245 13.1407C4.18531 13.2194 4.45244 13.2407 4.9867 13.2833C5.19934 13.3003 5.30565 13.3088 5.40805 13.329C5.64276 13.3754 5.86595 13.4678 6.06469 13.601C6.15138 13.6591 6.23256 13.7283 6.39492 13.8666C6.80284 14.2143 7.0068 14.3881 7.22005 14.49C7.71328 14.7258 8.28668 14.7258 8.77991 14.49C8.99316 14.3881 9.19712 14.2143 9.60504 13.8666C9.7674 13.7283 9.84858 13.6591 9.93527 13.601C10.134 13.4678 10.3572 13.3754 10.5919 13.329C10.6943 13.3088 10.8006 13.3003 11.0133 13.2833C11.5475 13.2407 11.8146 13.2194 12.0375 13.1407C12.553 12.9586 12.9584 12.5532 13.1405 12.0377C13.2192 11.8148 13.2405 11.5477 13.2832 11.0134C13.3001 10.8008 13.3086 10.6945 13.3288 10.5921C13.3752 10.3574 13.4676 10.1342 13.6008 9.93546C13.6589 9.84876 13.7281 9.76758 13.8665 9.60523C14.2141 9.1973 14.3879 8.99334 14.4898 8.78009C14.7256 8.28686 14.7256 7.71346 14.4898 7.22023C14.3879 7.00698 14.2141 6.80302 13.8665 6.3951C13.7281 6.23274 13.6589 6.15157 13.6008 6.06487C13.4676 5.86613 13.3752 5.64295 13.3288 5.40823C13.3086 5.30584 13.3001 5.19952 13.2832 4.98688C13.2405 4.45263 13.2192 4.1855 13.1405 3.96263C12.9584 3.44717 12.553 3.04172 12.0375 2.85965C11.8146 2.78093 11.5475 2.75961 11.0133 2.71698C10.8006 2.70001 10.6943 2.69153 10.5919 2.67131C10.3572 2.62497 10.134 2.53252 9.93527 2.39932C9.84857 2.34121 9.7674 2.27203 9.60504 2.13368C9.19712 1.78605 8.99316 1.61223 8.77991 1.51031C8.28668 1.27456 7.71328 1.27456 7.22005 1.51031C7.0068 1.61223 6.80283 1.78605 6.39492 2.13368ZM10.9156 6.57559C11.1275 6.3637 11.1275 6.02016 10.9156 5.80827C10.7037 5.59638 10.3602 5.59638 10.1483 5.80827L6.91482 9.04177L5.85162 7.97857C5.63973 7.76668 5.29619 7.76668 5.0843 7.97857C4.87242 8.19045 4.87242 8.53399 5.0843 8.74588L6.53117 10.1927C6.74305 10.4046 7.08659 10.4046 7.29848 10.1927L10.9156 6.57559Z" fill="white"/>
</svg>
