<svg width="37" height="29" viewBox="0 0 37 29" fill="none" xmlns="http://www.w3.org/2000/svg">
<path d="M1.36987 13.577H0.0841455V16.1484H1.36987V13.577ZM34.7988 16.1484C35.5089 16.1484 36.0845 15.5728 36.0845 14.8627C36.0845 14.1526 35.5089 13.577 34.7988 13.577V16.1484ZM23.2272 2.00543V0.719705H20.6558V2.00543H23.2272ZM34.0539 15.8622C34.6773 16.2022 35.4583 15.9725 35.7983 15.3491C36.1383 14.7257 35.9086 13.9448 35.2852 13.6047L34.0539 15.8622ZM20.6557 27.5908L20.6557 28.8765L23.2271 28.8765L23.2271 27.5908L20.6557 27.5908ZM1.36987 16.1484H34.6695V13.577H1.36987V16.1484ZM34.6695 16.1484H34.7988V13.577H34.6695V16.1484ZM20.6558 2.00543C20.6558 3.89855 21.6783 5.7067 22.9335 7.24722C24.2144 8.81922 25.8908 10.2981 27.5194 11.5565C29.1555 12.8208 30.7853 13.8945 32.0024 14.6505C32.6121 15.0293 33.1211 15.3301 33.4793 15.5371C33.6585 15.6406 33.8001 15.7208 33.8979 15.7756C33.9468 15.8031 33.9848 15.8241 34.0111 15.8387C34.0242 15.8459 34.0344 15.8515 34.0416 15.8555C34.0451 15.8574 34.048 15.859 34.05 15.8601C34.0511 15.8607 34.0519 15.8611 34.0526 15.8615C34.0529 15.8617 34.0532 15.8619 34.0534 15.8619C34.0537 15.8621 34.0539 15.8622 34.6696 14.7335C35.2852 13.6047 35.2854 13.6048 35.2855 13.6049C35.2854 13.6049 35.2855 13.6049 35.2854 13.6048C35.2853 13.6048 35.285 13.6046 35.2845 13.6043C35.2834 13.6038 35.2817 13.6028 35.2791 13.6014C35.2741 13.5986 35.266 13.5942 35.2551 13.5881C35.2331 13.576 35.1996 13.5574 35.1553 13.5326C35.0667 13.4829 34.9348 13.4083 34.766 13.3107C34.4281 13.1154 33.9428 12.8287 33.3592 12.4662C32.1898 11.7397 30.6375 10.7163 29.0917 9.52174C27.5383 8.32138 26.0326 6.97983 24.927 5.62291C23.7957 4.23451 23.2272 3.0052 23.2272 2.00543H20.6558ZM34.6695 14.8627C34.1878 13.6706 34.1874 13.6708 34.187 13.6709C34.1868 13.671 34.1864 13.6712 34.186 13.6713C34.1852 13.6717 34.1842 13.6721 34.1831 13.6725C34.1807 13.6735 34.1776 13.6748 34.1737 13.6763C34.166 13.6795 34.1552 13.6839 34.1415 13.6896C34.114 13.701 34.0749 13.7173 34.0247 13.7386C33.9244 13.7811 33.7802 13.8433 33.5982 13.9245C33.2345 14.087 32.7192 14.326 32.1026 14.6364C30.8726 15.2555 29.2238 16.1667 27.5667 17.33C25.9163 18.4886 24.2128 19.9285 22.9117 21.6173C21.6091 23.308 20.6557 25.3211 20.6557 27.5908L23.2271 27.5908C23.2271 26.0679 23.8647 24.5937 24.9487 23.1867C26.0341 21.7779 27.5126 20.5098 29.0442 19.4346C30.5691 18.364 32.1023 17.5154 33.2588 16.9332C33.8354 16.643 34.3145 16.4209 34.6469 16.2725C34.813 16.1983 34.9422 16.1426 35.0283 16.1061C35.0714 16.0878 35.1037 16.0744 35.1244 16.0658C35.1348 16.0615 35.1423 16.0584 35.1467 16.0566C35.149 16.0557 35.1505 16.0551 35.1512 16.0548C35.1516 16.0546 35.1518 16.0545 35.1518 16.0545C35.1517 16.0546 35.1516 16.0546 35.1516 16.0546C35.1514 16.0547 35.1511 16.0548 34.6695 14.8627Z" fill="white" fill-opacity="0.3"/>
</svg>
