<svg width="13" height="18" viewBox="0 0 13 18" fill="none" xmlns="http://www.w3.org/2000/svg">
<path fill-rule="evenodd" clip-rule="evenodd" d="M0.333328 7.06198C0.333328 3.52992 3.13155 0.666626 6.58333 0.666626C10.0351 0.666626 12.8333 3.52992 12.8333 7.06198C12.8333 8.95561 12.0283 10.6576 10.7512 11.8278C10.3255 12.2178 10.0101 12.5068 9.78665 12.7164C9.67491 12.8213 9.58948 12.9031 9.52642 12.966C9.49499 12.9973 9.47095 13.0221 9.45303 13.0413C9.44417 13.0508 9.4375 13.0582 9.43266 13.0638L9.42835 13.0688L9.42567 13.072C9.22857 13.3209 9.18591 13.3851 9.16051 13.4433C9.1351 13.5014 9.11681 13.5768 9.06709 13.8931C9.04746 14.0179 9.04545 14.2318 9.04545 14.8139V14.8389C9.04546 15.1798 9.04547 15.4739 9.0241 15.7152C9.0015 15.9704 8.95146 16.2231 8.81708 16.4612C8.66748 16.7264 8.4523 16.9465 8.19318 17.0996C7.96044 17.2371 7.71351 17.2883 7.46412 17.3114C7.22832 17.3333 6.94097 17.3333 6.60784 17.3333H6.5589C6.22577 17.3333 5.93834 17.3333 5.70253 17.3114C5.45315 17.2883 5.20622 17.2371 4.97348 17.0996C4.71436 16.9465 4.49918 16.7264 4.34957 16.4612C4.2152 16.2231 4.16516 15.9704 4.14256 15.7152C4.12118 15.4739 4.12119 15.1798 4.12121 14.8389L4.12121 14.8139C4.12121 14.2318 4.1192 14.0179 4.09957 13.8931C4.04984 13.5768 4.03156 13.5014 4.00615 13.4433C3.98074 13.3851 3.93809 13.3209 3.74099 13.072L3.73826 13.0687L3.734 13.0638C3.72915 13.0582 3.72249 13.0508 3.71362 13.0413C3.69571 13.0221 3.67167 12.9973 3.64024 12.966C3.57718 12.9031 3.49175 12.8213 3.38 12.7164C3.15651 12.5068 2.84116 12.2178 2.41549 11.8278C1.13835 10.6576 0.333328 8.95561 0.333328 7.06198ZM7.90422 15.3953C7.90174 15.4761 7.898 15.5467 7.89238 15.6102C7.87692 15.7848 7.85084 15.8481 7.83296 15.8798C7.7831 15.9682 7.71137 16.0416 7.625 16.0926C7.59404 16.1109 7.53212 16.1376 7.36155 16.1534C7.18318 16.1699 6.94781 16.1705 6.58333 16.1705C6.21885 16.1705 5.98348 16.1699 5.80511 16.1534C5.63454 16.1376 5.57262 16.1109 5.54166 16.0926C5.45529 16.0416 5.38356 15.9682 5.33369 15.8798C5.31582 15.8481 5.28974 15.7848 5.27428 15.6102C5.26865 15.5467 5.26492 15.4761 5.26244 15.3953H7.90422ZM5.58208 10.3537C5.40924 10.0549 5.02691 9.95279 4.72812 10.1256C4.42933 10.2985 4.32723 10.6808 4.50007 10.9796C4.79446 11.4885 5.28024 11.8747 5.85976 12.0386V13.1666C5.85976 13.5118 6.13958 13.7916 6.48476 13.7916C6.82994 13.7916 7.10976 13.5118 7.10976 13.1666V12.0387C7.68928 11.8747 8.17508 11.4885 8.46947 10.9796C8.64231 10.6808 8.54021 10.2985 8.24142 10.1256C7.94263 9.95279 7.5603 10.0549 7.38746 10.3537C7.20641 10.6667 6.86954 10.875 6.48476 10.875C6.09999 10.875 5.76313 10.6667 5.58208 10.3537Z" fill="url(#paint0_linear_65_969)"/>
<defs>
<linearGradient id="paint0_linear_65_969" x1="0.646611" y1="-3.99755" x2="13.0496" y2="-3.78774" gradientUnits="userSpaceOnUse">
<stop stop-color="#2997FF"/>
<stop offset="1" stop-color="#F9FFEF"/>
</linearGradient>
</defs>
</svg>
