<svg width="153" height="41" viewBox="0 0 153 41" fill="none" xmlns="http://www.w3.org/2000/svg">
<path d="M1.80138 9V1.18754H4.60726C6.34581 1.18754 7.36913 2.06782 7.36913 3.55329C7.36913 5.06076 6.34581 5.96304 4.60726 5.96304H2.74768V9H1.80138ZM4.60726 5.03875C5.78463 5.03875 6.37882 4.53259 6.37882 3.55329C6.37882 2.59599 5.78463 2.11183 4.60726 2.11183H2.74768V5.03875H4.60726ZM10.6372 9.13204C9.01965 9.13204 7.96332 7.94367 7.96332 6.08408C7.96332 4.2245 9.01965 3.03612 10.6372 3.03612C12.2437 3.03612 13.3 4.2245 13.3 6.08408C13.3 7.94367 12.2437 9.13204 10.6372 9.13204ZM10.6372 8.25176C11.7045 8.25176 12.3317 7.43751 12.3317 6.08408C12.3317 4.73066 11.7045 3.9164 10.6372 3.9164C9.55882 3.9164 8.93162 4.73066 8.93162 6.08408C8.93162 7.43751 9.55882 8.25176 10.6372 8.25176ZM15.3655 9L13.5609 3.16817H14.5732L15.9376 8.0317L17.3241 3.16817H18.3144L19.7008 8.0317L21.0763 3.16817H22.0886L20.284 9H19.1176L17.8192 4.5656L16.5208 9H15.3655ZM25.0259 9.13204C23.3754 9.13204 22.3521 7.93266 22.3521 6.08408C22.3521 4.2355 23.3754 3.03612 24.9819 3.03612C26.5004 3.03612 27.5567 4.13647 27.5567 6.09509V6.37017H23.3204C23.3864 7.62457 24.0136 8.25176 25.0259 8.25176C25.7851 8.25176 26.2803 7.86664 26.4784 7.27246L27.4687 7.34948C27.1606 8.39481 26.2583 9.13204 25.0259 9.13204ZM26.5444 5.55592C26.4564 4.43356 25.8402 3.9164 24.9819 3.9164C24.0796 3.9164 23.4744 4.47758 23.3204 5.55592H26.5444ZM28.6846 9V3.16817H29.4988L29.5318 4.2465C29.7409 3.50927 30.203 3.16817 30.9183 3.16817H31.4904V4.04844H30.9293C30.049 4.04844 29.6088 4.52159 29.6088 5.47889V9H28.6846ZM34.6436 9.13204C32.9931 9.13204 31.9698 7.93266 31.9698 6.08408C31.9698 4.2355 32.9931 3.03612 34.5996 3.03612C36.1181 3.03612 37.1744 4.13647 37.1744 6.09509V6.37017H32.9381C33.0041 7.62457 33.6313 8.25176 34.6436 8.25176C35.4029 8.25176 35.898 7.86664 36.0961 7.27246L37.0864 7.34948C36.7783 8.39481 35.876 9.13204 34.6436 9.13204ZM36.1621 5.55592C36.0741 4.43356 35.4579 3.9164 34.5996 3.9164C33.6973 3.9164 33.0921 4.47758 32.9381 5.55592H36.1621ZM40.4039 9.13204C38.8854 9.13204 37.9392 7.95467 37.9392 6.08408C37.9392 4.21349 38.8854 3.03612 40.4039 3.03612C41.1852 3.03612 41.8784 3.38823 42.1975 3.98242V1.18754H43.1218V9H42.2855L42.2525 8.11972C41.9224 8.75792 41.2182 9.13204 40.4039 9.13204ZM40.591 8.25176C41.6253 8.25176 42.1975 7.4155 42.1975 6.08408C42.1975 4.73066 41.6253 3.9164 40.591 3.9164C39.5677 3.9164 38.9075 4.73066 38.9075 6.08408C38.9075 7.4155 39.5677 8.25176 40.591 8.25176ZM49.8631 9.13204C49.0489 9.13204 48.3887 8.75792 48.0586 8.11972L48.0255 9H47.1893V1.18754H48.1136V3.98242C48.3997 3.49827 49.0489 3.03612 49.8631 3.03612C51.4036 3.03612 52.3719 4.21349 52.3719 6.08408C52.3719 7.95467 51.4036 9.13204 49.8631 9.13204ZM49.8081 8.25176C50.7874 8.25176 51.4036 7.4155 51.4036 6.08408C51.4036 4.73066 50.7874 3.9164 49.8301 3.9164C48.7518 3.9164 48.1136 4.73066 48.1136 6.08408C48.1136 7.4155 48.7518 8.25176 49.8081 8.25176ZM53.5192 10.6505V9.83626H54.1904C54.5975 9.83626 54.7626 9.71523 54.8726 9.44014L55.0817 8.88997H54.7626L52.6279 3.16817H53.6402L55.3788 8.0317L57.0403 3.16817H58.0526L55.6869 9.73723C55.4668 10.3644 55.0597 10.6505 54.2784 10.6505H53.5192Z" fill="white"/>
<path d="M32.2756 23.4396V33.2715L30.0234 34.0442V22.6662L23.2668 20.3028V36.4094L21.0367 37.1821V19.5293L17.6584 18.3354L14.2801 19.5293V37.1821L12.0279 36.4094V20.3028L5.29348 22.6662V34.0442L3.04127 33.2715V23.4396L0.789062 24.2123V34.8633L7.5235 37.2046V24.2584L9.77571 23.4626V38.0011L16.5323 40.3424V21.1177L17.6592 20.7195L18.7853 21.1177V40.3424L25.5197 38.0011V23.4626L27.7719 24.2584V37.2046L34.5285 34.8633V24.2123L32.2756 23.4396Z" fill="white"/>
<path d="M38.5369 32.5472V31.9625H38.9598C39.1943 31.9625 39.3352 32.0795 39.3352 32.2668C39.3352 32.4303 39.1942 32.5472 38.9598 32.5472H38.5369ZM38.0214 33.6241H38.5369V32.9692H38.8426C39.3113 33.6241 39.3113 33.6241 39.3113 33.6241H39.9219C39.3818 32.8751 39.3818 32.8751 39.3818 32.8751C39.6638 32.7818 39.8515 32.5708 39.8515 32.2201C39.8515 31.7515 39.499 31.5177 39.0064 31.5177H38.0212L38.0214 33.6241ZM38.8426 34.4435C37.8337 34.4435 37.0591 33.6241 37.0591 32.6411V32.6174C37.0591 31.6344 37.8335 30.8151 38.8426 30.8151C39.8744 30.8151 40.649 31.6108 40.649 32.6174C40.649 33.6012 39.8744 34.4435 38.8426 34.4435ZM38.8426 34.6543C39.9916 34.6543 40.884 33.718 40.884 32.6174C40.884 31.4938 39.9924 30.5806 38.8426 30.5806C37.7157 30.5806 36.8234 31.5169 36.8234 32.6174V32.6411C36.8234 33.7418 37.715 34.654 38.8426 34.654" fill="white"/>
<path d="M52.221 29.8288H57.27V28.4656H52.221V25.5018H59.7653V24.1089H50.6761V34.5697H60.0321V33.2361H52.221V29.8288Z" fill="white"/>
<path d="M77.3462 29.1631C77.3462 30.645 76.841 31.5944 75.9799 32.4235C75.1779 31.475 75.1779 31.475 75.1779 31.475H73.4257C74.8512 33.105 74.8512 33.105 74.8512 33.105C74.4954 33.2828 73.8706 33.4014 73.3664 33.431C71.139 33.431 69.3567 31.6233 69.3567 29.164V29.1344C69.3567 26.6144 71.0198 24.8674 73.2775 24.837C75.5351 24.837 77.3457 26.6155 77.3457 29.104L77.3462 29.1631ZM73.306 23.5018C70.1858 23.5318 67.7795 25.8723 67.7795 29.1911V29.2207C67.7795 32.4811 70.2467 34.7933 73.3341 34.7629C74.1361 34.7629 75.0864 34.5555 75.7989 34.1998L76.6311 35.1777H78.3834L76.8986 33.4588C78.1168 32.54 78.8885 30.9995 78.8885 29.103V29.0733C78.8885 25.8129 76.4237 23.4727 73.3058 23.5007" fill="white"/>
<path d="M94.1522 30.243C94.1522 32.11 92.9051 33.3539 91.0625 33.3539C89.28 33.3539 88.1506 32.0794 88.1506 30.243V23.9604H86.6359V30.3014C86.6359 33.1461 88.7149 34.7179 91.0622 34.7179C94.5078 34.7179 95.636 32.3473 95.636 30.3014V23.9604H94.1513L94.1522 30.243Z" fill="white"/>
<path d="M103.383 34.5697H104.869V24.1089H103.383V34.5697Z" fill="white"/>
<path d="M121.526 32.3183L114.102 24.1089H112.616V34.5697H114.102V26.33L121.557 34.5697H123.042V24.1089H121.527L121.526 32.3183Z" fill="white"/>
<path d="M130.789 34.5697H132.304V24.1089H130.789V34.5697Z" fill="white"/>
<path d="M147.389 28.9093L151.755 24.1074H149.913L146.437 27.8723L143.081 24.1074H141.091L145.309 28.9093L140.051 34.5706H141.982L146.289 29.9182L150.418 34.5706H152.497L147.389 28.9093Z" fill="white"/>
</svg>
