<svg width="112" height="40" viewBox="0 0 112 40" fill="none" xmlns="http://www.w3.org/2000/svg">
<path d="M1.16946 2.6805C3.50643 8.30812 7.10608 13.3854 12.626 18.687C17.5905 23.4551 20.4016 25.3926 26.0653 27.9733C29.3049 29.4647 30.9872 29.9368 35.786 30.6385C41.287 31.4429 41.7076 31.561 43.7856 33.0803C51.8181 39.032 64.7147 41.0309 76.8575 38.2555C87.8239 35.7322 102.028 28.1702 109.012 21.1072C111.403 18.6867 111.894 17.9671 111.668 17.3687C111.203 16.2548 110.659 16.5427 106.589 19.8767C97.1427 27.7668 85.6367 33.6316 75.1425 35.9413C67.1181 37.7642 58.5729 37.4192 51.7803 35.0408C49.0615 34.0496 44.5553 31.723 44.4333 31.2246C44.4006 31.0502 45.5115 30.4495 46.8803 29.8581C49.7955 28.5602 51.0205 27.3542 51.9449 25.0019C52.906 22.5419 52.287 19.8509 50.1971 17.51C48.0486 15.1607 46.9208 14.4587 44.5819 13.9753C41.9157 13.4159 39.7583 14.2028 38.0513 16.3276C35.7948 19.1635 35.769 22.6648 37.9324 26.458C38.5275 27.5061 38.8886 28.5199 38.6981 28.7182C38.222 29.2139 31.741 28.0401 28.556 26.8394C19.2916 23.4212 9.77132 14.8493 3.94382 4.72566C2.75352 2.62947 1.57017 0.873484 1.35988 0.814467C0.566365 0.528834 0.523716 1.05966 1.16946 2.6805ZM41.8265 16.4273C43.4313 15.7292 46.6243 16.3657 48.0129 17.6995C50.7208 20.3002 50.8419 23.3707 48.2362 26.0143C46.0937 28.245 42.5626 29.142 41.1739 27.8082C39.4381 26.1411 38.3698 22.8755 38.7655 20.5872C39.2198 18.3075 39.9488 17.34 41.8265 16.4273Z" fill="white"/>
</svg>
