<svg width="63" height="64" viewBox="0 0 63 64" fill="none" xmlns="http://www.w3.org/2000/svg">
<path d="M10.0126 48.2202C10.1551 48.0121 10.2735 47.7884 10.3655 47.5535C10.3966 47.5481 10.4285 47.5481 10.4596 47.5535C10.554 47.5244 10.6458 47.4877 10.7341 47.4437C10.8831 47.3182 10.6479 47.53 10.6086 47.6633C10.6086 47.6633 10.5224 47.6163 10.3812 47.6006H10.2949C10.2949 47.6006 10.2949 47.6006 10.2086 47.6006C9.95582 47.6549 9.7089 47.7337 9.47139 47.8359C8.46642 48.2801 7.43735 48.6676 6.38903 48.9967C5.59777 49.225 4.76199 49.252 3.95766 49.0751C3.72255 49.0042 3.49626 48.9069 3.28315 48.7849C2.97471 48.5976 2.72688 48.3253 2.56942 48.0006C2.29485 47.2372 2.31161 46.3994 2.61648 45.6476C2.75521 45.3345 2.93168 45.0395 3.14197 44.7692C3.37727 44.5104 3.6204 44.2594 3.92629 43.9849C4.72634 43.2808 5.62465 42.6969 6.59295 42.2516C6.83196 42.1382 7.06495 42.0125 7.29099 41.8751C7.47138 41.7653 7.71452 41.632 7.70668 41.5927C7.76319 41.5411 7.80627 41.4765 7.83217 41.4045C7.84575 41.373 7.86429 41.3439 7.88707 41.3182L7.92629 41.1692L7.97335 40.9653H8.11452C8.17908 40.9469 8.24203 40.9233 8.30276 40.8947C8.24662 40.9729 8.19927 41.0571 8.16158 41.1457C8.16158 41.1849 8.11452 41.1457 8.02825 41.1457C7.35701 41.1668 6.69302 41.2911 6.05962 41.5143C5.33021 41.7261 4.58511 41.9535 3.8008 42.1496C3.30668 42.2672 3.18903 41.8672 3.37727 41.2633C3.64545 40.4454 4.20331 39.7536 4.94589 39.3182C5.35371 39.1005 5.77258 38.9042 6.2008 38.73C6.70218 38.5203 7.22999 38.3804 7.76942 38.3143C8.18117 38.2632 8.59885 38.2898 9.0008 38.3927C9.30974 38.4741 9.60183 38.6095 9.86354 38.7927C10.1874 39.0101 10.456 39.3002 10.6479 39.6398C10.9314 40.155 11.0671 40.7386 11.04 41.3261C11.03 41.5183 11.0064 41.7097 10.9694 41.8986C10.9356 42.0779 10.8857 42.2538 10.8204 42.4241C10.7498 42.6202 10.6714 42.8163 10.5851 43.0045C10.4898 43.1774 10.3851 43.345 10.2714 43.5065L10.0988 43.7418C10.0596 43.6398 10.0596 43.6398 10.0596 43.6398L9.94197 43.7339H9.73805C9.43957 43.7894 9.14586 43.868 8.85962 43.9692C8.34197 44.1339 8.07531 44.5339 8.14589 44.8633C8.20864 45.028 8.42825 45.0123 8.57727 44.981L9.00864 44.8555C9.3406 44.7335 9.68526 44.6493 10.0361 44.6045C10.0988 44.6045 10.1067 44.6045 10.389 44.6045C10.6714 44.6045 10.7812 44.6516 10.9773 44.6829C11.1835 44.7216 11.3857 44.7794 11.5812 44.8555C11.8031 44.9254 12.0143 45.0257 12.2086 45.1535C12.4215 45.2879 12.6165 45.4487 12.789 45.632C13.2451 46.175 13.4828 46.8684 13.4557 47.577C13.427 48.4676 13.1734 49.3364 12.7184 50.1025C12.5014 50.4863 12.238 50.8419 11.9341 51.1614C11.84 51.2476 11.7851 51.3261 11.6675 51.4202C11.5498 51.5143 11.4322 51.6084 11.3381 51.6712C11.1607 51.783 10.9775 51.8851 10.789 51.977C10.2165 52.228 9.71452 52.377 9.13413 52.6359C8.85924 52.7506 8.59649 52.8924 8.34982 53.0594C8.11452 53.2084 7.84001 53.4672 7.98119 53.7574C8.12236 54.0476 8.42825 53.9849 8.68707 53.9692C8.94589 53.9535 9.23609 53.9065 9.47139 53.8751C9.88878 53.8069 10.3133 53.7937 10.7341 53.8359H10.891L11.0557 53.9065C11.285 53.9966 11.5034 54.1124 11.7067 54.2516C12.2728 54.5876 12.682 55.135 12.8439 55.7731C12.8545 56.1841 12.6715 56.5761 12.3498 56.832C12.2125 56.9755 12.0629 57.1067 11.9028 57.2241C11.63 57.3746 11.3097 57.414 11.0086 57.3339C10.6847 57.283 10.3764 57.1597 10.1067 56.9731C9.96175 56.8541 9.7972 56.7612 9.6204 56.6986L9.48707 56.6437H9.41648L9.18119 56.5731C9.0082 56.4994 8.81889 56.4723 8.63217 56.4947C8.41256 56.4947 8.21648 56.4947 7.94197 56.5418C7.42152 56.6085 6.89792 56.6477 6.37335 56.6594C6.15559 56.6572 5.93818 56.6414 5.72237 56.6123C5.54982 56.6123 5.34589 56.5496 5.21256 56.5104C4.97112 56.4464 4.73713 56.357 4.51452 56.2437C4.36291 56.1806 4.21833 56.1017 4.08315 56.0084C3.89964 55.8939 3.73328 55.7539 3.58903 55.5927C3.38327 55.3536 3.23802 55.0684 3.1655 54.7614C3.09159 54.5068 3.05979 54.2419 3.07138 53.977L3.14982 53.3731C3.17381 53.0028 3.30155 52.6468 3.51844 52.3457C3.59382 52.2028 3.69181 52.073 3.80864 51.9614C3.93413 51.8359 4.03609 51.7104 4.17727 51.5849L4.60864 51.1849C4.78903 51.0594 5.0008 50.9418 5.18903 50.8163C5.37727 50.6908 5.60472 50.5653 5.81648 50.4398C6.03618 50.3054 6.26408 50.1849 6.49884 50.079L7.9655 49.381L8.70276 49.0202L9.18119 48.7692C9.23989 48.7465 9.30019 48.7282 9.36158 48.7143L9.55766 48.9967C9.69325 49.1781 9.83993 49.351 9.99687 49.5143L10.1145 49.6398L9.25962 48.7143C9.49099 48.5517 9.68378 48.3401 9.82433 48.0947L10.0126 48.2202Z" fill="white"/>
<path d="M13.5293 45.7354L13.7881 47.5158C13.843 48.1198 13.9136 48.7158 13.9528 49.3119C13.9528 49.7511 14.094 50.1668 14.1019 50.606C14.0979 52.1469 13.9429 53.6836 13.6391 55.1943C13.5372 55.8688 13.4352 56.5354 13.3411 57.2021C13.2408 58.0869 12.9228 58.933 12.4156 59.6649C12.2352 59.8923 11.8273 59.6649 11.4352 59.2962C11.0222 58.9737 10.7429 58.5101 10.6509 57.9943C10.7109 56.4568 10.8839 54.9259 11.1685 53.4139C11.2451 52.4404 11.2083 51.4612 11.0587 50.4962C11.0117 49.955 10.9724 49.4139 10.894 48.8805C10.8156 48.3472 10.7528 47.7982 10.6509 47.257C10.5489 46.5903 10.3764 45.9394 10.2195 45.2805C9.99208 44.2873 9.67712 43.3162 9.27833 42.3786C8.8739 41.6974 8.4121 41.0519 7.89794 40.4492C7.79598 40.308 7.67049 40.1903 7.57637 40.0413C7.24696 39.4923 7.34108 39.21 7.97637 38.6688C8.12539 38.5511 8.25872 38.4178 8.41559 38.308C8.84522 37.9326 9.47807 37.9065 9.93715 38.2452C10.2576 38.4861 10.5615 38.7481 10.847 39.0296C11.1116 39.3314 11.3479 39.6569 11.5528 40.0021C11.9739 40.695 12.331 41.4248 12.6195 42.1825C13.0387 43.3239 13.3794 44.4926 13.6391 45.6805L13.5293 45.7354Z" fill="white"/>
<path d="M31.7232 25.9621C28.9483 29.7962 25.4268 33.0296 21.3703 35.468C20.6409 35.9072 19.9036 36.3386 19.1664 36.7621C18.4255 37.1776 17.6637 37.5546 16.884 37.8915C14.8645 38.7574 12.7828 39.4705 10.6566 40.0248C9.59773 40.2837 8.54675 40.566 7.47224 40.7542C6.9389 40.8562 6.41341 40.966 5.90361 41.0601L5.1193 41.1699H4.78204C4.6183 41.1846 4.4558 41.2108 4.29577 41.2484C4.19363 41.3733 4.15071 41.5364 4.17812 41.6954C4.18251 41.8584 4.19823 42.0209 4.22518 42.1817V42.315L4.28008 42.5582L4.40557 43.0915C4.68792 44.2993 5.06439 45.5307 5.40949 46.7856C5.75459 48.0405 5.94283 49.3425 6.13106 50.6444C6.40807 52.3584 6.4608 54.1012 6.28792 55.8288C6.07935 57.6404 5.38869 59.363 4.28792 60.817C3.50361 61.7033 3.07224 61.0444 2.84479 59.9543C2.7193 59.4052 2.60165 58.7386 2.50753 58.0562C2.38172 57.3367 2.33961 56.605 2.38204 55.8758C2.44636 54.6179 2.41752 53.3569 2.29577 52.1033C2.13965 50.767 1.91451 49.4398 1.62126 48.1268C1.43302 46.7778 1.284 45.3582 1.01734 43.8758L0.789885 42.4327C0.720064 42.1016 0.672896 41.7662 0.648708 41.4288C0.617097 41.1106 0.617097 40.7901 0.648708 40.4719C0.720833 39.8884 0.969908 39.341 1.36243 38.9033C1.83401 38.5139 2.39903 38.2544 3.00165 38.1503L4.05263 37.9856L4.57028 37.915L4.85263 37.8758C5.23694 37.8758 5.63694 37.7895 5.98204 37.7268C9.85262 37.0867 13.5931 35.8205 17.0566 33.9778C20.902 32.0633 24.3239 29.3963 27.1193 26.1346C28.8417 24.0976 30.3356 21.8778 31.5742 19.515C32.2017 18.4719 32.7899 17.3895 33.4095 16.2915C33.7232 15.7346 34.0526 15.1935 34.4134 14.5974C34.8029 13.8112 35.5532 13.2661 36.4213 13.1386H36.8997C37.0224 13.1309 37.1456 13.1309 37.2683 13.1386C37.5323 13.1543 37.7945 13.191 38.0526 13.2484C38.5728 13.355 39.0696 13.5542 39.5193 13.8366C40.3907 14.4312 41.037 15.3012 41.3546 16.3072C41.8444 18.0247 41.917 19.8344 41.5664 21.5856C41.4242 22.4269 41.2251 23.2576 40.9703 24.0719C40.6985 24.8804 40.3655 25.6669 39.9742 26.4248C39.6446 27.1003 39.2699 27.7527 38.8526 28.3778C38.2903 29.2384 37.5689 29.9837 36.7271 30.5739C36.2896 30.8878 35.7373 30.9965 35.2134 30.8719C35.0002 30.8461 34.7917 30.7907 34.5938 30.7072C34.0369 30.3935 34.5389 29.3974 35.4801 27.9307C36.8228 25.695 37.7749 23.2469 38.2958 20.6915C38.5658 19.5831 38.5872 18.4287 38.3585 17.3111C38.2863 16.9786 38.1202 16.6738 37.8801 16.4327C37.6303 16.2167 37.3158 16.0898 36.986 16.0719C36.9209 16.0637 36.855 16.0637 36.7899 16.0719C36.7899 16.0719 36.7899 16.0719 36.8291 16.0719C36.8291 16.0719 36.8683 16.0719 36.8291 16.0719C36.7728 16.1404 36.7229 16.2139 36.6801 16.2915L36.5075 16.5503C36.4056 16.7778 36.3271 16.9817 36.233 17.217L35.1585 20.1582C34.9619 20.6786 34.734 21.1867 34.4762 21.6797C34.2095 22.1739 33.9271 22.6601 33.6448 23.1464C33.0644 24.1111 32.4605 25.068 31.8017 25.9935L31.7232 25.9621Z" fill="white"/>
<path d="M38.1813 63.649C36.1734 63.5 34.2597 63.2098 32.2754 62.9588C31.5617 62.849 30.8479 62.8412 30.142 62.7235C27.6558 62.2843 25.1852 61.7667 22.7303 61.2098C21.6401 60.951 20.542 60.7549 19.444 60.5432C18.746 60.4098 18.0322 60.2765 17.3264 60.1039L16.793 59.9471L16.3381 59.6569C16.0053 59.4562 15.6881 59.2307 15.3891 58.9824C15.0126 58.6686 15.2166 58.4334 15.7264 58.1981C15.9773 58.0569 16.3146 57.8843 16.6597 57.7118C16.8479 57.6255 17.0518 57.5314 17.2558 57.453L17.5617 57.3432C17.6528 57.3321 17.745 57.3321 17.8362 57.3432C20.4871 57.8608 23.3264 58.1667 26.0715 58.9824C27.7822 59.3434 29.5179 59.5741 31.2636 59.6726C33.1773 59.8974 35.0885 60.083 36.9969 60.2294L38.7617 60.3235H40.5107C41.3456 60.3041 42.1785 60.2334 43.0048 60.1118C43.1915 60.0882 43.3754 60.0461 43.5538 59.9863C43.7253 59.9417 43.8931 59.884 44.0558 59.8137C44.2289 59.7362 44.3965 59.6471 44.5577 59.5471C44.689 59.4695 44.8148 59.383 44.9342 59.2883C45.2267 59.0744 45.4216 58.7525 45.4754 58.3941C45.4993 58.0529 45.2994 57.7355 44.9813 57.6098C44.8617 57.5666 44.7383 57.5351 44.6126 57.5157C44.5333 57.4907 44.4609 57.4478 44.4009 57.3902C44.3382 57.2906 44.2906 57.1822 44.2597 57.0686C44.1469 56.682 44.1096 56.2772 44.1499 55.8765C44.1499 55.6569 44.1499 55.4451 44.1499 55.249C44.187 54.9034 44.3732 54.5911 44.6597 54.3941C44.8492 54.2529 45.0514 54.1295 45.2636 54.0255C45.3891 53.9785 45.4989 53.8686 45.6558 53.8843L46.1656 53.9785C47.2661 54.1953 48.2455 54.8165 48.9107 55.7196C49.2257 56.1792 49.4616 56.6881 49.6087 57.2255C49.6779 57.7857 49.6487 58.3538 49.5224 58.9039C49.3656 60.0412 48.3538 60.9745 47.4205 61.7981C46.9957 62.1488 46.5388 62.4586 46.0558 62.7235L45.4832 63.0059C45.2562 63.1022 45.023 63.1835 44.7852 63.249C44.1728 63.4523 43.5382 63.5813 42.895 63.6334C42.6175 63.6786 42.3369 63.7022 42.0558 63.7039H41.2715C40.7303 63.7039 40.2283 63.7039 39.7028 63.7039C39.1773 63.7039 38.6675 63.7039 38.1342 63.6569L38.1813 63.649Z" fill="white"/>
<path d="M52.7899 47.8574C52.9076 48.0143 53.0017 48.179 53.1115 48.3437L53.2605 48.5868C53.2921 48.6886 53.3106 48.7941 53.3154 48.9005C53.3154 49.3319 53.4174 49.7554 53.4174 50.179V50.7986C53.4447 51.0016 53.4447 51.2073 53.4174 51.4103L53.2997 52.0064C53.2498 52.1792 53.1787 52.3452 53.088 52.5005C52.9782 52.7358 52.884 52.9633 52.7821 53.1515C52.6932 53.3553 52.5799 53.5475 52.4448 53.7241C52.0006 54.2996 51.4426 54.7775 50.8056 55.128C50.2276 55.4661 49.6005 55.7122 48.9468 55.8574C48.3918 56.009 47.8201 56.0907 47.2448 56.1005C46.4866 56.1866 45.7265 55.9569 45.1429 55.4652C44.9625 55.3084 45.1978 55.0182 45.5193 54.7437C45.7786 54.4807 46.0994 54.2866 46.4527 54.179C46.91 54.1712 47.364 54.0999 47.8017 53.9672C48.2704 53.8484 48.7293 53.6937 49.1742 53.5045C49.6975 53.2401 50.0889 52.7721 50.2566 52.2103C50.3664 51.9358 50.3899 51.7162 50.4527 51.5672C50.4996 51.3695 50.5207 51.1665 50.5154 50.9633C50.5365 50.675 50.3817 50.4025 50.1233 50.2731C50.0215 50.2309 49.9166 50.1968 49.8095 50.1711C49.7286 50.1645 49.6473 50.1645 49.5664 50.1711H49.2684C48.8291 50.1711 48.3664 50.0927 47.8723 50.03C47.061 49.9976 46.2546 49.8873 45.4644 49.7005C45.2812 49.6618 45.1005 49.6121 44.9233 49.5515C44.8069 49.4702 44.7081 49.3662 44.6331 49.2456C44.6015 49.0983 44.6015 48.9459 44.6331 48.7986C44.7214 48.4436 44.8757 48.1083 45.088 47.8103C45.1978 47.6378 45.2997 47.4652 45.4174 47.3084C45.6064 47.0593 45.8341 46.8422 46.0919 46.6652C46.3527 46.4578 46.6279 46.2691 46.9154 46.1005C47.1544 46.0372 47.3984 45.9952 47.6448 45.9751C47.8172 45.9647 47.9901 45.9647 48.1625 45.9751C48.4886 45.9458 48.8167 45.9458 49.1429 45.9751C49.4723 45.9751 49.8644 46.2574 50.837 46.43L52.0056 46.8849L52.4684 47.3005L52.8527 47.779L52.7899 47.8574Z" fill="white"/>
<path d="M46.5298 36.9864C47.8866 37.5276 49.3141 38.0531 50.7964 38.7511C51.3874 38.9696 51.9507 39.2565 52.4749 39.6061C53.5633 40.3508 54.3872 41.4218 54.8278 42.6649C54.9723 43.2422 55.0486 43.8345 55.0552 44.4296C55.0597 44.7477 55.0334 45.0655 54.9768 45.3786C54.9085 45.7129 54.7978 46.0371 54.6474 46.3433C54.3731 46.8814 53.9687 47.3425 53.4709 47.6845C53.0266 47.9696 52.5394 48.1815 52.0278 48.3119C50.8692 48.7123 49.6001 48.6448 48.4905 48.1237C48.1533 47.9511 48.3101 47.5747 48.6631 47.1747C49.0277 46.7093 49.5095 46.3493 50.0592 46.1315C50.7498 46.1078 51.417 45.8754 51.9729 45.4649C52.0659 45.3753 52.1312 45.261 52.1611 45.1355C52.2096 44.8262 52.2096 44.5114 52.1611 44.2021C52.1499 44.083 52.1289 43.9649 52.0984 43.8492C52.0772 43.7695 52.0455 43.6931 52.0043 43.6217C51.9099 43.4511 51.7786 43.3038 51.62 43.1904C51.2098 42.883 50.7681 42.6201 50.3023 42.4061C49.0607 41.7664 47.7704 41.2262 46.4435 40.7904L43.7847 39.8806C42.4373 39.3768 41.1269 38.7793 39.8631 38.0923C38.7372 37.5995 37.6821 36.9586 36.7258 36.1864C36.5074 36.0059 36.3053 35.8064 36.1219 35.5904C35.4945 34.7119 35.6749 34.21 36.3337 33.7002C36.4834 33.5757 36.6406 33.4605 36.8043 33.3551C37.33 33.0691 37.9648 33.0691 38.4905 33.3551C39.1886 33.7551 39.769 34.1394 40.4513 34.4453C41.1337 34.7511 41.8474 35.1119 42.6552 35.4257C43.8474 35.8884 45.1258 36.4374 46.5219 36.8845L46.5298 36.9864Z" fill="white"/>
<path d="M46.8189 12.0578C46.9287 12.2696 46.6228 12.3794 46.0816 12.4343C45.8326 12.4275 45.5874 12.3715 45.3601 12.2696C45.239 12.1549 45.1263 12.0317 45.0228 11.901C44.9757 11.8304 44.8267 10.7794 44.7248 10.4265C44.649 10.1002 44.6225 9.76446 44.6463 9.43038C44.6463 8.76371 44.6463 8.10489 44.5993 7.46175C44.5932 7.31788 44.6145 7.17415 44.662 7.03822C44.8394 6.57051 44.8828 6.0626 44.7875 5.57156C44.7875 5.48528 44.7875 5.40685 44.6855 5.32842C44.4984 4.82759 44.4157 4.29378 44.4424 3.75979C44.5914 3.31273 44.6228 2.87352 44.7875 2.40293C44.7875 2.34018 44.7875 2.27744 44.8816 2.19901C45.0448 2.11469 45.1315 1.93166 45.0934 1.75195C45.0934 1.65783 45.0934 1.55587 45.0934 1.45391C45.1213 1.34543 45.1607 1.24026 45.211 1.14018C45.2913 1.01873 45.3804 0.90338 45.4777 0.795087C45.5983 0.709831 45.7478 0.675976 45.8934 0.700969C46.011 0.763714 46.1444 0.661753 46.262 0.630381C46.3062 0.623206 46.3512 0.623206 46.3953 0.630381C46.6221 0.77894 46.8395 0.94134 47.0463 1.11666C47.2514 1.29966 47.4355 1.50483 47.5953 1.72842L47.713 2.00293C47.8087 2.19705 47.8875 2.39912 47.9483 2.60685C48.0738 3.06175 48.1914 3.54803 48.2306 3.64215C48.2699 3.73626 48.2306 3.85391 48.1757 3.96371C48.1208 4.07352 48.4895 5.41469 48.4659 5.47744C48.4659 5.76764 48.5522 6.06567 48.3012 6.35587C48.2754 6.41323 48.2754 6.47891 48.3012 6.53626C48.3031 7.04178 48.2263 7.54451 48.0738 8.02646C48.0189 8.2696 48.0189 8.52842 47.9797 8.77156C47.9797 8.81862 47.9326 8.86567 47.9169 8.90489C47.8814 8.9548 47.8548 9.01054 47.8385 9.0696C47.7836 9.65783 47.564 10.2304 47.5561 10.8108C47.5561 10.9519 47.1875 11.5402 47.1953 11.697C47.2032 11.8539 46.7718 11.9716 46.8189 12.0578Z" fill="white"/>
<path d="M53.574 23.3187C53.4955 23.4912 53.2602 23.4128 52.9387 23.2245C52.8043 23.1246 52.7009 22.9886 52.6406 22.8324C52.652 22.6977 52.673 22.5641 52.7034 22.4324C52.7034 22.3618 53.3387 21.5304 53.5504 21.2245C53.7481 20.9316 53.9857 20.6676 54.2563 20.4402C54.7716 19.967 55.3371 19.5515 55.9426 19.201C56.0804 19.121 56.2321 19.0678 56.3896 19.0441C56.9183 18.9607 57.4296 18.7911 57.9034 18.5422C57.9818 18.5422 58.0759 18.4873 58.1308 18.3696C58.6384 18.0246 59.2227 17.8092 59.8328 17.7422C60.0916 17.7892 60.3347 17.7814 60.6171 17.8441L61.3544 18.0167C61.4249 18.0167 61.4955 18.0167 61.5661 18.1108C61.7308 18.3618 61.8642 18.3147 62.0053 18.3383C62.2106 18.3526 62.4107 18.4087 62.5936 18.503C62.7046 18.5816 62.8003 18.68 62.8759 18.7932C62.9622 18.8873 62.8759 19.2167 62.8759 19.2559C62.8759 19.2951 62.8759 19.5147 62.8759 19.6559V19.7971C62.5513 20.1217 62.1997 20.4182 61.8249 20.6834L61.6053 20.7696L61.1347 20.9736C60.7975 21.1304 60.4367 21.201 60.3504 21.2638C60.2642 21.3265 60.1857 21.2638 60.0994 21.2638C60.0132 21.2638 59.0642 21.7108 59.0249 21.7187C58.7975 21.7187 58.6171 21.9147 58.3269 21.7736C58.2832 21.7483 58.2294 21.7483 58.1857 21.7736C57.8124 21.917 57.4299 22.0349 57.0406 22.1265C56.8445 22.1892 56.6642 22.2912 56.4681 22.354C56.4681 22.354 56.3818 22.354 56.3426 22.354C56.291 22.3419 56.2373 22.3419 56.1857 22.354C55.7126 22.5148 55.2578 22.7251 54.8289 22.9814C54.7347 23.0441 54.1387 23.1618 54.0445 23.2559C53.9504 23.35 53.6053 23.2481 53.574 23.3187Z" fill="white"/>
</svg>
