<svg width="43" height="43" viewBox="0 0 43 43" fill="none" xmlns="http://www.w3.org/2000/svg">
<g clip-path="url(#clip0_0_10926)">
<path d="M0.325745 21.5024C0.325745 15.8866 2.55659 10.5009 6.52754 6.52992C10.4985 2.55898 15.8842 0.328125 21.5 0.328125C27.1157 0.328125 32.5015 2.55898 36.4724 6.52992C40.4434 10.5009 42.6742 15.8866 42.6742 21.5024C42.6742 27.1181 40.4434 32.5039 36.4724 36.4748C32.5015 40.4458 27.1157 42.6766 21.5 42.6766C15.8842 42.6766 10.4985 40.4458 6.52754 36.4748C2.55659 32.5039 0.325745 27.1181 0.325745 21.5024ZM14.0187 8.77569C2.47259 15.7719 5.4273 33.0903 18.6428 35.8822C19.641 36.0921 20.7707 36.2321 21.4804 36.2307C22.1288 36.2307 23.3655 36.1007 24.2295 35.9436C29.6005 34.9654 34.0233 31.0638 35.6413 25.8742C36.6924 22.5067 36.8295 22.6553 29.0578 22.7367L28.4295 24.1648C25.5805 30.6311 16.4893 30.2313 14.5056 23.5535C11.8637 14.6551 24.6094 10.1338 28.3767 18.6323C29.1492 20.3746 28.7651 20.2375 32.8808 20.2375C36.8652 20.2375 36.5696 20.4817 35.8827 17.7612C33.4849 8.27014 22.383 3.70741 14.0187 8.77569Z" fill="#004FFC"/>
<path d="M14.0827 9.07038C22.3079 4.10076 33.2251 8.57468 35.5829 17.881C36.2584 20.5485 36.5491 20.3091 32.631 20.3091C28.5838 20.3091 28.9615 20.4435 28.2018 18.7352C24.4972 10.402 11.9636 14.8354 14.5616 23.5605C16.5122 30.1083 25.4521 30.5004 28.2538 24.1599L28.8717 22.7596C36.514 22.6798 36.3792 22.5341 35.3456 25.836C33.7545 30.9247 29.4053 34.7502 24.1236 35.7094C23.274 35.8635 22.0579 35.9909 21.4203 35.9909C20.7224 35.9923 19.6116 35.8551 18.6299 35.6492C5.63434 32.9117 2.7288 15.9304 14.0827 9.07038Z" fill="#FCFCFC"/>
</g>
<defs>
<clipPath id="clip0_0_10926">
<rect width="42.3485" height="42.3485" fill="white" transform="translate(0.325745 0.328125)"/>
</clipPath>
</defs>
</svg>
