<svg width="39" height="30" viewBox="0 0 39 30" fill="none" xmlns="http://www.w3.org/2000/svg">
<path d="M24.5594 19.5006V30.0088H15.0455V19.7118C16.3933 20.2663 17.9525 20.6095 19.8288 20.6095C21.6788 20.6095 23.2116 20.1871 24.5594 19.5006Z" fill="#C41230"/>
<path d="M10.235 17.7556L10.2879 22.0856H0.72113V12.5543C4.71167 12.5543 6.72016 14.4553 9.04578 16.6467C9.44219 16.99 9.8386 17.3596 10.235 17.7556Z" fill="#C41230"/>
<path d="M10.235 4.84924V12.0043C7.98868 10.0506 5.2138 8.30798 0.72113 8.30798V4.84924H10.235Z" fill="#C41230"/>
<path d="M14.9931 7.27588V14.2198C16.3409 15.5927 17.7416 16.3848 19.7237 16.3848C21.7586 16.3848 23.2121 15.8039 24.507 14.9326V7.30228H14.9931V7.27588Z" fill="#C41230"/>
<path d="M38.3015 0.859375V4.05409C33.7032 4.05409 30.9547 6.56234 28.7877 9.38741V0.859375H38.3015Z" fill="#C41230"/>
<path d="M38.3015 8.27661V22.1116H28.7877V16.5406C29.4219 15.7485 30.0033 14.9037 30.5583 14.1116C33.0689 10.4944 34.8131 8.27661 38.3015 8.27661Z" fill="#C41230"/>
</svg>
