<svg width="43" height="43" viewBox="0 0 43 43" fill="none" xmlns="http://www.w3.org/2000/svg">
<path d="M7.41552 28.2218C7.43606 27.7537 7.43489 26.9442 7.41258 26.4236C7.37208 25.4527 7.40143 24.9194 7.5024 24.7919C7.54643 24.736 8.18807 24.7199 10.3549 24.7199C12.7324 24.7199 13.1557 24.7072 13.1838 24.6369C13.2056 24.5821 12.244 23.5968 10.3519 21.7362C7.48714 18.9181 7.48714 18.9181 7.43195 18.5474C7.36855 18.123 7.35623 14.711 7.41434 13.6577L7.4525 12.9554L13.4198 12.9872C18.2242 17.7016 19.2633 18.6817 19.3214 18.6644C19.3995 18.6408 19.4107 18.285 19.4107 15.7978L19.4101 12.9583H37.3737V18.8391H31.3858C31.3858 29.7399 31.3759 30.3919 31.2949 30.4911C31.2056 30.6001 31.073 30.6018 25.2782 30.5868L19.3531 30.5718C14.5241 25.8315 13.522 24.8865 13.4586 24.9021C13.3723 24.9228 13.3635 25.1955 13.3635 27.7629V30.6006H7.4343C7.39086 29.4164 7.39497 28.69 7.41552 28.2218ZM25.398 21.7507V18.8391L19.3807 18.8397C23.9984 23.3523 25.3528 24.6622 25.3686 24.6622C25.385 24.6622 25.398 23.3523 25.398 21.7507Z" fill="#FC3F00" fill-opacity="0.988235"/>
</svg>
