<svg width="43" height="44" viewBox="0 0 43 44" fill="none" xmlns="http://www.w3.org/2000/svg">
<path d="M3.65814 35.2281V34.0791L22.0463 26.0361L6.8157 38.1826L3.65814 35.2281Z" fill="#009EE0"/>
<path d="M25.5863 9.62152C26.0042 2.53226 25.8779 3.32998 26.5577 3.45145C26.8865 3.51054 28.0659 3.66483 29.1785 3.7945C31.5039 4.06534 31.4798 4.05549 31.2309 4.74817C31.1269 5.03541 29.7599 8.8911 28.1941 13.3147C26.6264 17.7383 25.2724 21.4496 25.1814 21.5628C25.0922 21.6761 25.0124 21.7122 25.0031 21.6449C24.9771 21.4479 25.382 13.1177 25.5863 9.62152Z" fill="#009EE0"/>
<path d="M27.3156 28.9868C26.6339 27.9052 26.1176 26.981 26.1696 26.9351C26.2494 26.8661 34.1359 33.8389 38.1832 37.5567L39.3682 38.6433C35.8651 40.8313 34.8101 41.4665 34.7637 41.4665C34.7173 41.4665 33.3001 39.1012 31.6173 36.2107C29.9326 33.3202 27.9972 30.0685 27.3156 28.9868Z" fill="#009EE0"/>
<path d="M26.6821 23.0984C26.7824 23.0443 29.1617 20.9892 31.9719 18.5337C34.7821 16.0765 37.1912 14.0674 37.3249 14.0674C37.5348 14.0674 40.6181 17.4799 40.6181 17.713C40.6181 17.7606 37.4995 19.0655 33.69 20.6117C29.8786 22.1579 26.7025 23.4234 26.6319 23.4234C26.5595 23.4234 26.5019 23.3726 26.5019 23.3102C26.5019 23.2478 26.5836 23.1526 26.6821 23.0984Z" fill="#009EE0"/>
<path d="M17.625 18.431C15.2494 16.5138 13.3066 14.902 13.3066 14.8462C13.3066 14.6787 17.5693 12.064 17.7495 12.1231C17.8423 12.1526 18.2398 12.842 18.6336 13.6545C19.0255 14.467 20.2049 16.7945 21.2506 18.825C22.2982 20.857 23.1526 22.5739 23.1526 22.6412C23.1507 22.7085 23.0672 22.7643 22.965 22.7643C22.8628 22.7643 22.5917 22.5739 22.3614 22.3409C22.131 22.1061 20.0006 20.3482 17.625 18.431Z" fill="#009EE0"/>
<path d="M28.0669 25.0845C28.208 24.9614 37.4931 24.2424 37.6473 24.3425C37.7272 24.3967 37.3873 27.2446 37.1569 28.4461C37.0994 28.7481 36.9433 28.9795 36.7966 28.9795C36.6536 28.9795 34.6383 28.1621 32.3166 27.1625C27.7363 25.1928 27.8719 25.2584 28.0669 25.0845Z" fill="#009EE0"/>
<path d="M19.8765 34.4828C19.6722 34.4221 23.7547 26.8486 23.9925 26.8486H24.1838C24.2339 26.8486 24.2767 27.1999 24.2767 27.6283C24.2785 28.0567 24.4438 29.6637 24.6481 31.1984C24.8524 32.7331 25.0178 34.2662 25.0196 34.6043C25.0196 35.1985 24.9973 35.2198 24.3695 35.2198C24.0129 35.2198 22.904 35.0688 21.9085 34.885C20.9129 34.7012 19.9991 34.5206 19.8765 34.4828Z" fill="#009EE0"/>
<path d="M15.0432 20.852C15.1806 20.7305 21.2153 23.9411 21.2153 24.1348C21.2153 24.2169 19.8371 24.5271 18.1506 24.8259C16.4659 25.123 14.8983 25.3708 14.668 25.3741C14.3336 25.3807 14.2501 25.292 14.2519 24.9309C14.2538 24.34 14.9076 20.9718 15.0432 20.852Z" fill="#009EE0"/>
</svg>
