<svg width="374" height="180" viewBox="0 0 374 180" fill="none" xmlns="http://www.w3.org/2000/svg">
<mask id="path-1-outside-1_2012_6024" maskUnits="userSpaceOnUse" x="154" y="24" width="53" height="130" fill="black">
<rect fill="white" x="154" y="24" width="53" height="130"/>
<path d="M182.458 153V65.34H155.098V47.52H166.078C181.378 47.52 187.318 42.12 187.318 25.2H205.858V153H182.458Z"/>
</mask>
<path d="M182.458 153H181.458V154H182.458V153ZM182.458 65.34H183.458V64.34H182.458V65.34ZM155.098 65.34H154.098V66.34H155.098V65.34ZM155.098 47.52V46.52H154.098V47.52H155.098ZM187.318 25.2V24.2H186.318V25.2H187.318ZM205.858 25.2H206.858V24.2H205.858V25.2ZM205.858 153V154H206.858V153H205.858ZM183.458 153V65.34H181.458V153H183.458ZM182.458 64.34H155.098V66.34H182.458V64.34ZM156.098 65.34V47.52H154.098V65.34H156.098ZM155.098 48.52H166.078V46.52H155.098V48.52ZM166.078 48.52C173.798 48.52 179.46 47.1682 183.15 43.4051C186.833 39.6491 188.318 33.7265 188.318 25.2H186.318C186.318 33.5935 184.834 38.8308 181.722 42.0049C178.617 45.1718 173.658 46.52 166.078 46.52V48.52ZM187.318 26.2H205.858V24.2H187.318V26.2ZM204.858 25.2V153H206.858V25.2H204.858ZM205.858 152H182.458V154H205.858V152Z" fill="url(#paint0_linear_2012_6024)" fill-opacity="0.7" mask="url(#path-1-outside-1_2012_6024)"/>
<defs>
<linearGradient id="paint0_linear_2012_6024" x1="186.667" y1="-248.802" x2="186.667" y2="120.124" gradientUnits="userSpaceOnUse">
<stop stop-color="white"/>
<stop offset="1" stop-color="white" stop-opacity="0"/>
</linearGradient>
</defs>
</svg>
