<svg width="270" height="169" viewBox="0 0 270 169" fill="none" xmlns="http://www.w3.org/2000/svg">
<mask id="path-1-outside-1_2014_6036" maskUnits="userSpaceOnUse" x="84" y="21" width="102" height="136" fill="black">
<rect fill="white" x="84" y="21" width="102" height="136"/>
<path d="M134.58 155.88C103.98 155.88 87.2395 140.58 85.9795 117L109.92 115.92C111.18 129.6 120.72 135.54 134.58 135.54C148.62 135.54 159.96 129.6 159.96 115.92C159.96 102.24 149.88 95.4 134.22 95.4H123.24V76.86H134.22C146.46 76.86 155.82 72.18 155.82 59.94C155.82 49.14 148.98 42.66 134.76 42.66C120.36 42.66 113.7 48.96 112.26 58.32L88.3195 57.06C90.8395 36.18 107.4 22.32 134.76 22.32C163.56 22.32 179.94 36 179.94 57.78C179.94 71.1 172.2 80.46 157.8 84.96C174.54 89.28 184.26 100.98 184.26 117.18C184.26 141.48 164.46 155.88 134.58 155.88Z"/>
</mask>
<path d="M85.9795 117L85.9345 116.001L84.9272 116.046L84.981 117.053L85.9795 117ZM109.92 115.92L110.915 115.828L110.828 114.878L109.874 114.921L109.92 115.92ZM123.24 95.4H122.24V96.4H123.24V95.4ZM123.24 76.86V75.86H122.24V76.86H123.24ZM112.26 58.32L112.207 59.3186L113.11 59.3662L113.248 58.4721L112.26 58.32ZM88.3195 57.06L87.3267 56.9402L87.1985 58.0024L88.267 58.0586L88.3195 57.06ZM157.8 84.96L157.501 84.0055L154.153 85.0518L157.55 85.9283L157.8 84.96ZM134.58 154.88C119.438 154.88 107.853 151.095 99.9153 144.513C91.9929 137.943 87.5955 128.5 86.9781 116.947L84.981 117.053C85.6236 129.08 90.2261 139.077 98.6387 146.052C107.036 153.015 119.121 156.88 134.58 156.88V154.88ZM86.0246 117.999L109.965 116.919L109.874 114.921L85.9345 116.001L86.0246 117.999ZM108.924 116.012C109.575 123.086 112.389 128.27 116.926 131.661C121.433 135.03 127.522 136.54 134.58 136.54V134.54C127.777 134.54 122.166 133.08 118.123 130.059C114.11 127.06 111.524 122.434 110.915 115.828L108.924 116.012ZM134.58 136.54C141.719 136.54 148.29 135.033 153.106 131.681C157.97 128.295 160.96 123.081 160.96 115.92H158.96C158.96 122.439 156.279 127.035 151.963 130.039C147.599 133.077 141.48 134.54 134.58 134.54V136.54ZM160.96 115.92C160.96 108.806 158.323 103.366 153.569 99.7353C148.855 96.1348 142.176 94.4 134.22 94.4V96.4C141.923 96.4 148.114 98.0852 152.355 101.325C156.556 104.534 158.96 109.354 158.96 115.92H160.96ZM134.22 94.4H123.24V96.4H134.22V94.4ZM124.24 95.4V76.86H122.24V95.4H124.24ZM123.24 77.86H134.22V75.86H123.24V77.86ZM134.22 77.86C140.441 77.86 146.076 76.6749 150.182 73.8101C154.346 70.9051 156.82 66.3541 156.82 59.94H154.82C154.82 65.7659 152.613 69.6749 149.037 72.1699C145.404 74.7051 140.238 75.86 134.22 75.86V77.86ZM156.82 59.94C156.82 54.3194 155.031 49.6911 151.27 46.4887C147.536 43.3087 142.004 41.66 134.76 41.66V43.66C141.735 43.66 146.733 45.2513 149.974 48.0113C153.188 50.7489 154.82 54.7606 154.82 59.94H156.82ZM134.76 41.66C127.424 41.66 121.922 43.2639 118.048 46.1812C114.156 49.112 112.023 53.2819 111.271 58.1679L113.248 58.4721C113.936 53.9981 115.853 50.338 119.251 47.7788C122.667 45.2061 127.695 43.66 134.76 43.66V41.66ZM112.312 57.3214L88.3721 56.0614L88.267 58.0586L112.207 59.3186L112.312 57.3214ZM89.3123 57.1798C90.5425 46.9867 95.1875 38.5516 102.835 32.6518C110.495 26.7427 121.244 23.32 134.76 23.32V21.32C120.915 21.32 109.704 24.8273 101.614 31.0682C93.5116 37.3184 88.6165 46.2533 87.3267 56.9402L89.3123 57.1798ZM134.76 23.32C149.015 23.32 160.063 26.7069 167.526 32.664C174.96 38.5988 178.94 47.164 178.94 57.78H180.94C180.94 46.6159 176.729 37.4512 168.773 31.101C160.846 24.7731 149.304 21.32 134.76 21.32V23.32ZM178.94 57.78C178.94 64.2349 177.069 69.6745 173.495 74.0445C169.914 78.4244 164.565 81.7981 157.501 84.0055L158.098 85.9145C165.434 83.6219 171.155 80.0656 175.044 75.3105C178.94 70.5455 180.94 64.6451 180.94 57.78H178.94ZM157.55 85.9283C165.753 88.0453 172.17 91.9521 176.535 97.2508C180.896 102.544 183.26 109.289 183.26 117.18H185.26C185.26 108.871 182.763 101.666 178.079 95.9792C173.399 90.2979 166.586 86.1947 158.049 83.9917L157.55 85.9283ZM183.26 117.18C183.26 129.027 178.448 138.405 170.017 144.848C161.557 151.314 149.373 154.88 134.58 154.88V156.88C149.666 156.88 162.322 153.246 171.232 146.437C180.171 139.605 185.26 129.633 185.26 117.18H183.26Z" fill="url(#paint0_linear_2014_6036)" fill-opacity="0.7" mask="url(#path-1-outside-1_2014_6036)"/>
<defs>
<linearGradient id="paint0_linear_2014_6036" x1="135" y1="-233.597" x2="135" y2="112.783" gradientUnits="userSpaceOnUse">
<stop stop-color="white"/>
<stop offset="1" stop-color="white" stop-opacity="0"/>
</linearGradient>
</defs>
</svg>
