<svg width="374" height="180" viewBox="0 0 374 180" fill="none" xmlns="http://www.w3.org/2000/svg">
<mask id="path-1-outside-1_2014_6031" maskUnits="userSpaceOnUse" x="138" y="21" width="98" height="133" fill="black">
<rect fill="white" x="138" y="21" width="98" height="133"/>
<path d="M139.543 153C139.543 122.04 151.063 104.22 186.163 85.86C203.623 76.68 209.923 71.64 209.923 60.84C209.923 50.22 202.903 42.66 189.223 42.66C174.643 42.66 166.003 51.12 164.023 66.6L139.903 65.16C142.423 38.52 160.063 22.32 189.223 22.32C217.483 22.32 234.043 37.8 234.043 60.48C234.043 80.1 224.863 89.28 199.843 102.6C178.603 113.94 168.343 124.74 167.623 132.66H234.043V153H139.543Z"/>
</mask>
<path d="M139.543 153H138.543V154H139.543V153ZM186.163 85.86L186.626 86.7461L186.628 86.7451L186.163 85.86ZM164.023 66.6L163.963 67.5982L164.896 67.6539L165.014 66.7269L164.023 66.6ZM139.903 65.16L138.907 65.0658L138.809 66.0965L139.843 66.1582L139.903 65.16ZM199.843 102.6L199.373 101.717L199.372 101.718L199.843 102.6ZM167.623 132.66L166.627 132.569L166.527 133.66H167.623V132.66ZM234.043 132.66H235.043V131.66H234.043V132.66ZM234.043 153V154H235.043V153H234.043ZM140.543 153C140.543 137.65 143.396 125.673 150.515 115.27C157.65 104.844 169.14 95.8925 186.626 86.7461L185.699 84.9739C168.085 94.1875 156.265 103.326 148.865 114.14C141.449 124.977 138.543 137.39 138.543 153H140.543ZM186.628 86.7451C195.345 82.1618 201.417 78.5443 205.297 74.6646C209.251 70.7111 210.923 66.4931 210.923 60.84H208.923C208.923 65.9869 207.444 69.6888 203.883 73.2504C200.248 76.8857 194.44 80.3782 185.697 84.9749L186.628 86.7451ZM210.923 60.84C210.923 55.3037 209.087 50.474 205.383 47.0347C201.686 43.6019 196.243 41.66 189.223 41.66V43.66C195.882 43.66 200.789 45.4981 204.022 48.5003C207.248 51.496 208.923 55.7563 208.923 60.84H210.923ZM189.223 41.66C181.732 41.66 175.66 43.8384 171.206 48.1027C166.763 52.3564 164.04 58.5812 163.031 66.4731L165.014 66.7269C165.985 59.1388 168.572 53.3936 172.589 49.5473C176.595 45.7115 182.133 43.66 189.223 43.66V41.66ZM164.082 65.6018L139.962 64.1618L139.843 66.1582L163.963 67.5982L164.082 65.6018ZM140.898 65.2542C142.139 52.1374 147.089 41.6814 155.234 34.5001C163.382 27.316 174.828 23.32 189.223 23.32V21.32C174.457 21.32 162.503 25.424 153.911 32.9999C145.316 40.5786 140.186 51.5426 138.907 65.0658L140.898 65.2542ZM189.223 23.32C203.176 23.32 214.125 27.1405 221.572 33.648C229.005 40.1438 233.043 49.398 233.043 60.48H235.043C235.043 48.882 230.8 39.0562 222.888 32.142C214.99 25.2395 203.529 21.32 189.223 21.32V23.32ZM233.043 60.48C233.043 70.1056 230.801 77.0609 225.561 83.2568C220.272 89.5117 211.873 95.0623 199.373 101.717L200.312 103.483C212.832 96.8177 221.533 91.1183 227.089 84.5482C232.694 77.9191 235.043 70.4744 235.043 60.48H233.043ZM199.372 101.718C188.702 107.414 180.742 113 175.344 118.192C169.973 123.358 167.019 128.251 166.627 132.569L168.618 132.751C168.946 129.149 171.482 124.682 176.731 119.633C181.953 114.61 189.743 109.126 200.313 103.482L199.372 101.718ZM167.623 133.66H234.043V131.66H167.623V133.66ZM233.043 132.66V153H235.043V132.66H233.043ZM234.043 152H139.543V154H234.043V152Z" fill="url(#paint0_linear_2014_6031)" fill-opacity="0.7" mask="url(#path-1-outside-1_2014_6031)"/>
<defs>
<linearGradient id="paint0_linear_2014_6031" x1="186.667" y1="-248.802" x2="186.667" y2="120.124" gradientUnits="userSpaceOnUse">
<stop stop-color="white"/>
<stop offset="1" stop-color="white" stop-opacity="0"/>
</linearGradient>
</defs>
</svg>
