<svg width="24" height="25" viewBox="0 0 24 25" fill="none" xmlns="http://www.w3.org/2000/svg">
<path fill-rule="evenodd" clip-rule="evenodd" d="M12 4.51562C12.4142 4.51562 12.75 4.85141 12.75 5.26562V12.0156H19.5C19.9142 12.0156 20.25 12.3514 20.25 12.7656C20.25 13.1798 19.9142 13.5156 19.5 13.5156H12.75V20.2656C12.75 20.6798 12.4142 21.0156 12 21.0156C11.5858 21.0156 11.25 20.6798 11.25 20.2656V13.5156H4.5C4.08579 13.5156 3.75 13.1798 3.75 12.7656C3.75 12.3514 4.08579 12.0156 4.5 12.0156H11.25V5.26562C11.25 4.85141 11.5858 4.51562 12 4.51562Z" fill="#555555"/>
</svg>
