<svg width="16" height="16" viewBox="0 0 16 16" fill="none" xmlns="http://www.w3.org/2000/svg">
<path fill-rule="evenodd" clip-rule="evenodd" d="M6.39498 2.13368C6.23263 2.27203 6.15144 2.34121 6.06475 2.39932C5.86601 2.53252 5.64282 2.62497 5.40811 2.67131C5.30571 2.69153 5.1994 2.70001 4.98676 2.71698C4.4525 2.75961 4.18538 2.78093 3.96251 2.85965C3.44705 3.04172 3.04159 3.44717 2.85953 3.96263C2.78081 4.1855 2.75949 4.45263 2.71686 4.98688C2.69989 5.19952 2.6914 5.30584 2.67119 5.40823C2.62485 5.64294 2.5324 5.86613 2.3992 6.06487C2.34109 6.15157 2.27191 6.23274 2.13356 6.3951C1.78593 6.80302 1.61211 7.00698 1.51018 7.22023C1.27444 7.71346 1.27444 8.28686 1.51018 8.78009C1.61211 8.99334 1.78593 9.1973 2.13356 9.60523C2.2719 9.76756 2.34109 9.84876 2.3992 9.93546C2.5324 10.1342 2.62485 10.3574 2.67119 10.5921C2.6914 10.6945 2.69989 10.8008 2.71686 11.0134C2.75949 11.5477 2.78081 11.8148 2.85953 12.0377C3.04159 12.5532 3.44705 12.9586 3.96251 13.1407C4.18538 13.2194 4.4525 13.2407 4.98676 13.2833C5.1994 13.3003 5.30571 13.3088 5.40811 13.329C5.64282 13.3754 5.86601 13.4678 6.06475 13.601C6.15144 13.6591 6.23262 13.7283 6.39498 13.8666C6.8029 14.2143 7.00686 14.3881 7.22011 14.49C7.71334 14.7258 8.28674 14.7258 8.77997 14.49C8.99322 14.3881 9.19718 14.2143 9.6051 13.8666C9.76746 13.7283 9.84864 13.6591 9.93533 13.601C10.1341 13.4678 10.3573 13.3754 10.592 13.329C10.6944 13.3088 10.8007 13.3003 11.0133 13.2833C11.5476 13.2407 11.8147 13.2194 12.0376 13.1407C12.553 12.9586 12.9585 12.5532 13.1406 12.0377C13.2193 11.8148 13.2406 11.5477 13.2832 11.0134C13.3002 10.8008 13.3087 10.6945 13.3289 10.5921C13.3752 10.3574 13.4677 10.1342 13.6009 9.93546C13.659 9.84876 13.7282 9.76758 13.8665 9.60523C14.2142 9.1973 14.388 8.99334 14.4899 8.78009C14.7256 8.28686 14.7256 7.71346 14.4899 7.22023C14.388 7.00698 14.2142 6.80302 13.8665 6.3951C13.7282 6.23274 13.659 6.15157 13.6009 6.06487C13.4677 5.86613 13.3752 5.64294 13.3289 5.40823C13.3087 5.30584 13.3002 5.19952 13.2832 4.98688C13.2406 4.45263 13.2193 4.1855 13.1406 3.96263C12.9585 3.44717 12.553 3.04172 12.0376 2.85965C11.8147 2.78093 11.5476 2.75961 11.0133 2.71698C10.8007 2.70001 10.6944 2.69153 10.592 2.67131C10.3573 2.62497 10.1341 2.53252 9.93533 2.39932C9.84864 2.34121 9.76746 2.27203 9.6051 2.13368C9.19718 1.78605 8.99322 1.61223 8.77997 1.51031C8.28674 1.27456 7.71334 1.27456 7.22011 1.51031C7.00686 1.61223 6.80289 1.78605 6.39498 2.13368ZM10.9157 6.57559C11.1276 6.3637 11.1276 6.02016 10.9157 5.80827C10.7038 5.59638 10.3603 5.59638 10.1484 5.80827L6.91489 9.04177L5.85168 7.97857C5.63979 7.76668 5.29625 7.76668 5.08437 7.97857C4.87248 8.19045 4.87248 8.53399 5.08437 8.74588L6.53123 10.1927C6.74312 10.4046 7.08665 10.4046 7.29854 10.1927L10.9157 6.57559Z" fill="white"/>
</svg>
